<?xml version="1.0" encoding="utf-8"?>
<!-- Generator: Adobe Illustrator 18.1.1, SVG Export Plug-In . SVG Version: 6.00 Build 0)  -->
<svg version="1.1" id="Layer_1" xmlns="http://www.w3.org/2000/svg" xmlns:xlink="http://www.w3.org/1999/xlink" x="0px" y="0px"
	 width="436px" height="436px" viewBox="262 6 436 436" enable-background="new 262 6 436 436" xml:space="preserve">
<polygon points="575.6,442 575.6,409.2 642.3,409.2 480,246.9 317.7,409.2 384.4,409.2 384.4,442 262,442 262,319.6 294.8,319.6 
	294.8,386.3 457.1,224 294.8,61.7 294.8,128.4 262,128.4 262,6 384.4,6 384.4,38.8 317.7,38.8 480,201.1 642.3,38.8 575.6,38.8 
	575.6,6 698,6 698,128.4 665.2,128.4 665.2,61.7 502.9,224 665.2,386.3 665.2,319.6 698,319.6 698,442 "/>
</svg>
