<?xml version="1.0" standalone="no"?>
<!DOCTYPE svg PUBLIC "-//W3C//DTD SVG 1.1//EN" "http://www.w3.org/Graphics/SVG/1.1/DTD/svg11.dtd" >
<svg xmlns="http://www.w3.org/2000/svg" xmlns:xlink="http://www.w3.org/1999/xlink" version="1.1">
<metadata></metadata>
<defs>
<font id="magistralblackcblack" horiz-adv-x="997" >
<font-face units-per-em="2048" ascent="1638" descent="-410" />
<missing-glyph horiz-adv-x="477" />
<glyph horiz-adv-x="0" />
<glyph horiz-adv-x="682" />
<glyph unicode=" "  horiz-adv-x="477" />
<glyph unicode="&#x09;" horiz-adv-x="477" />
<glyph unicode="&#xa0;" horiz-adv-x="477" />
<glyph unicode="!" horiz-adv-x="671" d="M102 1434h467l-41 -940h-385zM135 0v373h402v-373h-402z" />
<glyph unicode="&#x22;" horiz-adv-x="1071" d="M102 1434h381l-24 -666h-332zM588 1434h381l-25 -666h-332z" />
<glyph unicode="#" horiz-adv-x="1849" d="M61 381l72 184h301l131 322h-301l76 184h299l147 363h226l-146 -363h396l145 363h225l-143 -363h299l-74 -184h-301l-129 -322h299l-74 -184h-299l-153 -381h-228l154 381h-395l-156 -381h-225l153 381h-299zM659 565h398l131 322h-397z" />
<glyph unicode="$" horiz-adv-x="1581" d="M102 1047q0 176 76 270q27 34 61 57.5t61.5 35t69 17.5t61.5 6.5t61 0.5h204v147h197v-147h508v-357h-688q-69 0 -97 -4q-47 -8 -47 -51q0 -54 111 -80l479 -108q170 -39 242 -123q47 -57 62.5 -138.5t15.5 -187.5q0 -95 -16.5 -167t-67.5 -126q-16 -17 -33 -30 t-37.5 -22.5t-36.5 -16.5t-41 -11.5t-38 -7t-41 -3.5t-36.5 -1h-37.5h-33h-168v-147h-197v147h-555v356h746q72 0 94 11q31 15 31 43q0 57 -90 79l-523 123q-152 36 -231 164q-66 103 -66 271z" />
<glyph unicode="%" horiz-adv-x="1675" d="M102 1098q0 87 16.5 153t67.5 117q48 48 105 63t141 15q83 0 139.5 -15t104.5 -63q51 -51 67.5 -117t16.5 -153q0 -86 -16.5 -152t-67.5 -117q-48 -48 -104 -62.5t-140 -14.5q-85 0 -141.5 14.5t-104.5 62.5q-51 51 -67.5 117t-16.5 152zM283 1098q0 -96 26 -135 q34 -45 123 -45q87 0 121 45q27 41 27 135q0 103 -27 137q-34 45 -121 45q-89 0 -123 -45q-26 -33 -26 -137zM317 0l832 1434h213l-832 -1434h-213zM915 336q0 85 16.5 151t67.5 119q47 49 102.5 62.5t141.5 13.5q88 0 143 -13.5t103 -62.5q51 -53 67.5 -119t16.5 -151 q0 -87 -16.5 -153t-67.5 -117q-48 -48 -105 -63t-141 -15q-83 0 -139.5 15t-104.5 63q-51 51 -67.5 117t-16.5 153zM1096 336q0 -98 26 -137q34 -45 121 -45q89 0 123 45q27 41 27 137q0 99 -27 135q-15 22 -40.5 32.5t-39.5 11.5t-43 1q-28 0 -42 -1t-39 -11.5t-40 -32.5 q-26 -35 -26 -135z" />
<glyph unicode="&#x26;" horiz-adv-x="1708" d="M102 391q0 159 56 238q62 88 172 92v4q-91 15 -150 82q-43 50 -58.5 107t-15.5 130q0 209 93 302q31 31 71.5 50t91.5 26.5t86.5 9.5t90.5 2h915v-357h-709q-110 0 -137 -14q-47 -23 -47 -84q0 -69 55 -88q23 -10 125 -10h947v-312h-187v-155q0 -237 -100 -330 q-41 -37 -104.5 -57t-113 -23.5t-126.5 -3.5h-539q-49 0 -79.5 2.5t-81.5 12.5t-95 36.5t-80 69.5q-48 55 -64 117t-16 153zM557 463q0 -63 39 -88q30 -19 106 -19h232q71 0 88 19q16 16 16 65v129h-358q-3 0 -14 0.5t-16 0t-14.5 -2t-16.5 -4.5t-16 -9t-17 -15 q-29 -32 -29 -76z" />
<glyph unicode="'" horiz-adv-x="589" d="M102 1434h385l-26 -666h-332z" />
<glyph unicode="(" horiz-adv-x="841" d="M102 352v412v27v27.5v24.5t0.5 26t1.5 24t2 26t2.5 24.5t3.5 27t5 26.5t6 29q30 133 117 227q83 86 222 145.5t318 51.5v-266q-113 7 -206 -38t-136 -112q-49 -79 -49 -243v-467q0 -163 49 -242q41 -67 135 -112.5t207 -39.5v-266q-127 -8 -238 23t-178.5 75t-123.5 103 q-51 54 -77.5 107t-41.5 128q-19 97 -19 252z" />
<glyph unicode=")" horiz-adv-x="841" d="M61 -70q113 -6 207 39.5t135 112.5q50 81 50 242v467q0 162 -50 243q-43 67 -136 112t-206 38v266q179 8 318.5 -51.5t222.5 -145.5q87 -94 117 -227q5 -20 8.5 -39t5.5 -40.5t3.5 -34t2 -38t0.5 -33.5v-39.5v-37.5v-412q0 -160 -18 -252q-15 -75 -41.5 -128t-77.5 -107 q-56 -59 -123.5 -103t-179 -75t-238.5 -23v266z" />
<glyph unicode="*" horiz-adv-x="1003" d="M61 1151l97 166l245 -143v286h197v-286l246 143l96 -166l-248 -141l246 -144l-98 -170l-242 140v-281h-197v281l-241 -140l-99 170l246 144z" />
<glyph unicode="+" horiz-adv-x="1447" d="M102 506v266h484v481h278v-481h482v-266h-482v-481h-278v481h-484z" />
<glyph unicode="," horiz-adv-x="731" d="M0 -145l313 524l316 -189l-346 -503z" />
<glyph unicode="-" d="M61 387v324h875v-324h-875z" />
<glyph unicode="." horiz-adv-x="610" d="M102 0v369h406v-369h-406z" />
<glyph unicode="/" horiz-adv-x="1060" d="M-20 -348l897 1864h204l-897 -1864h-204z" />
<glyph unicode="0" horiz-adv-x="1400" d="M61 565v293q0 361 152 490q42 36 99 58.5t132 31t123.5 10.5t132.5 2q85 0 133 -2t123.5 -10.5t132.5 -31t99 -58.5q43 -36 73.5 -91.5t45 -104.5t22.5 -114.5t9 -99t1 -80.5v-293q0 -408 -161 -516q-58 -39 -167 -52t-311 -13t-310.5 13t-166.5 52q-162 109 -162 516z M524 596q0 -158 35 -199q38 -45 141 -45q104 0 142 45q35 41 35 199v274q0 121 -41 166q-43 45 -136 45q-92 0 -135 -45q-41 -45 -41 -166v-274z" />
<glyph unicode="1" horiz-adv-x="825" d="M0 1077v357h494q100 0 161 -54q68 -61 68 -180v-1200h-463v958q0 72 -18 95q-19 24 -68 24h-174z" />
<glyph unicode="2" horiz-adv-x="1386" d="M61 264q0 213 125 279l605 319q71 37 71 123q0 50 -24 74q-8 8 -19 13.5t-18.5 8.5t-23 4.5t-20 1.5h-22.5h-18h-572v347h863q64 0 130 -25t107 -70q80 -87 80 -295q0 -104 -14 -178t-44.5 -123t-66.5 -79t-92 -58l-434 -215q-21 -11 -21 -20t15 -9h630v-362h-1034 q-55 0 -95.5 22.5t-63.5 61t-33.5 83.5t-10.5 97z" />
<glyph unicode="3" horiz-adv-x="1411" d="M61 0v356h568q97 0 134.5 3.5t59.5 13.5q32 16 41.5 37.5t9.5 54.5q0 23 -2.5 38t-14.5 32t-34 26q-24 10 -106 10h-621v316h596q71 0 99 14q14 7 24 17q27 27 27 75q0 51 -29 76q-14 12 -37.5 18t-35.5 6.5t-44 0.5h-618v340h878q44 0 73 -2.5t70.5 -13t77 -35.5 t64.5 -64q68 -91 68 -254q0 -162 -66 -238q-60 -70 -166 -82v-6q47 0 98.5 -16t86.5 -45q40 -33 61 -86.5t24 -89.5t3 -90q0 -114 -20.5 -187t-88.5 -135q-59 -54 -123 -72t-147 -18h-910z" />
<glyph unicode="4" horiz-adv-x="1574" d="M20 483q0 116 28.5 177.5t82.5 109.5l653 588q105 92 277 92q143 0 209 -66q24 -24 36 -52.5t13.5 -47t1.5 -54.5v-5.5v-5.5v-648h213v-376h-213v-195h-463v195h-643q-44 0 -79 13t-64 54q-5 5 -15.5 25t-23.5 75t-13 121zM463 590q0 -19 26 -19h369v359q0 8 -8 8 q-4 0 -8.5 -3t-10 -8.5l-8.5 -8.5l-346 -308q-14 -14 -14 -20z" />
<glyph unicode="5" horiz-adv-x="1396" d="M61 860v344q0 105 54 164q66 66 190 66h993v-349h-686q-55 0 -73 -20q-15 -15 -15 -53v-23q0 -49 29 -74q22 -20 76 -20h381q76 0 137 -21.5t115 -89.5q35 -43 52 -98.5t19 -93t2 -111.5q0 -59 -1.5 -93.5t-10 -97.5t-31 -112.5t-59.5 -85.5q-59 -57 -141.5 -74.5 t-190.5 -17.5h-819v356h627q31 0 49 1t43.5 10t38.5 26q20 26 20 80q0 45 -22 70q-30 32 -111 32h-371q-47 0 -70 0.5t-65.5 9.5t-68.5 27q-31 21 -51 52t-28 69t-10 64.5t-2 62.5z" />
<glyph unicode="6" horiz-adv-x="1396" d="M61 401v654q0 199 123 295q109 84 289 84h789v-357h-600q-86 0 -113 -20q-25 -20 -25 -74v-96h443q50 0 86 -3t87 -19.5t87 -47.5q108 -91 108 -336q0 -226 -59 -331q-83 -150 -320 -150h-538q-147 0 -242 82q-38 31 -62.5 70.5t-35 84.5t-14 81t-3.5 83zM524 459 q0 -69 35 -90q23 -13 72 -13h127q47 0 71 21q31 24 31 78q0 63 -29 92q-5 5 -11 9t-11 6.5t-13.5 4t-13 2.5t-14.5 1.5t-13 0.5h-14.5h-13.5h-203v-112z" />
<glyph unicode="7" horiz-adv-x="1234" d="M-20 1085v349h1087q49 0 84.5 -13t55 -32.5t31 -48t14.5 -52t3 -53.5q0 -121 -59 -213l-647 -1022h-512l686 1026q20 33 20 39q0 20 -51 20h-712z" />
<glyph unicode="8" horiz-adv-x="1409" d="M61 389q0 54 3.5 93t24.5 95.5t61 90.5q59 49 157 63v4q-70 8 -125 58q-55 49 -71.5 108.5t-16.5 132.5q0 217 92 305q35 34 85.5 55t114.5 29t102 9.5t98 1.5h14h209h14q59 0 97.5 -1.5t102 -9.5t114.5 -29t86 -55q92 -88 92 -305q0 -73 -16.5 -132.5t-71.5 -108.5 q-55 -50 -125 -58v-4q99 -14 158 -63q40 -34 61 -90.5t24 -95t3 -93.5q0 -82 -12 -142.5t-50 -111.5q-24 -32 -53 -56t-65.5 -38.5t-67.5 -23t-79 -12t-79 -4.5t-86 -1h-303q-55 0 -86 1t-79 4.5t-79 12t-67.5 23t-65.5 38.5t-53 56q-38 51 -50 111.5t-12 142.5zM537 471 q0 -55 24 -82q29 -33 98 -33h91q69 0 98 33q24 27 24 82t-36 80q-26 18 -95 18h-73q-69 0 -95 -18q-36 -26 -36 -80zM569 971q0 -49 19 -68q20 -22 76 -22h81q56 0 76 22q19 19 19 68q0 64 -27 84q-13 10 -40 16t-48 6h-41q-21 0 -48 -6t-40 -16q-27 -20 -27 -84z" />
<glyph unicode="9" horiz-adv-x="1388" d="M61 979q0 51 0.5 76.5t5.5 72t15 76t30.5 66t49.5 65.5q61 61 131.5 80t157.5 19h450q56 0 98.5 -4.5t94 -18.5t95 -46t75.5 -81q63 -94 63 -242v-567q0 -61 -1 -92.5t-12 -91t-34 -105.5q-22 -44 -51 -77t-63 -52.5t-65 -31.5t-69.5 -17t-62 -6.5t-56.5 -1.5h-807v356 h652q56 0 82 21q24 21 24 67v93h-491q-147 0 -232 98q-24 28 -40 64t-23.5 65t-11.5 75.5t-4.5 68.5t-0.5 71zM537 963q0 -61 36 -89q24 -18 99 -18h192v143q0 32 -18 54q-24 24 -64 24h-116q-56 0 -88 -22q-41 -29 -41 -92z" />
<glyph unicode=":" horiz-adv-x="610" d="M102 0v369h406v-369h-406zM102 717v368h406v-368h-406z" />
<glyph unicode=";" horiz-adv-x="735" d="M0 -145l313 524l316 -189l-346 -503zM231 729v356h402v-356h-402z" />
<glyph unicode="&#x3c;" horiz-adv-x="1452" d="M102 993l1248 635v-250l-785 -385l785 -385v-250z" />
<glyph unicode="=" horiz-adv-x="1449" d="M102 309v266h1246v-266h-1246zM102 727v266h1246v-266h-1246z" />
<glyph unicode="&#x3e;" horiz-adv-x="1452" d="M102 358v250l785 385l-785 385v250l1248 -635z" />
<glyph unicode="?" horiz-adv-x="1044" d="M20 1077v357h642q40 0 63.5 -2t64 -10.5t74.5 -31t62 -59.5q57 -80 57 -237q0 -136 -43 -217.5t-135 -143.5l-103 -69q-16 -11 -38 -35t-31 -41q-19 -38 -19 -60v-34h-401v71q0 85 41 144q23 34 113 96l63 43q59 40 76.5 68.5t17.5 76.5q0 55 -35 72q-24 12 -102 12h-367 zM213 0v373h401v-373h-401z" />
<glyph unicode="@" horiz-adv-x="2017" d="M102 582q0 219 20 353.5t91 242.5q45 69 109 119t126 76.5t140.5 42t135.5 19t128 3.5h360q464 0 619 -301q52 -102 68 -226.5t16 -289.5q0 -166 -13.5 -266.5t-46.5 -172.5q-44 -94 -116 -137t-178 -43q-65 0 -122 17.5t-103 59.5t-62 103q-101 -180 -334 -180 q-260 0 -360 176q-66 118 -66 338q0 225 57 342q49 99 146 155t219 56h283h16.5h18t17.5 -0.5t19 -1t17.5 -2t18.5 -4t16.5 -5.5t17 -7.5t14.5 -10t15 -12.5q18 -19 26.5 -48t9 -43.5t0.5 -53.5v-486q0 -84 37.5 -128t96.5 -44q72 0 112 68q25 45 32 111t7 206q0 78 -1 109 t-6.5 103t-21.5 127.5t-43 103.5q-35 63 -83 104t-106 59.5t-107.5 24.5t-114.5 6h-377q-45 0 -76.5 -1t-79.5 -7t-83.5 -16t-78 -29.5t-74 -47t-60.5 -69t-48 -94.5q-43 -118 -43 -449q0 -294 47 -452q19 -61 50 -107.5t71 -76t81 -48.5t91.5 -28t90.5 -12t89 -3h570v-192 h-621q-378 0 -540 237q-78 114 -106 285t-28 447zM780 526q0 -142 25 -200q38 -82 137 -82q96 0 158 67q74 78 74 213v238q0 30 -19 49q-19 16 -65 16h-80q-114 0 -170 -63q-60 -68 -60 -238z" />
<glyph unicode="A" horiz-adv-x="1593" d="M-61 0l530 1276q19 44 40 72.5t57.5 53.5t93 36.5t137.5 11.5q48 0 81 -2.5t73 -12.5t68.5 -28.5t56.5 -51t48 -79.5l531 -1276h-488l-112 295h-516l-113 -295h-487zM649 623h295l-129 362q-12 31 -18 31q-7 0 -19 -31z" />
<glyph unicode="B" horiz-adv-x="1587" d="M102 227v975q0 104 50 160q27 31 71.5 51.5t89.5 20.5h779q99 0 177.5 -18.5t133.5 -76.5q90 -92 90 -307q0 -71 -13.5 -122.5t-58.5 -100.5q-61 -66 -143 -72v-8q100 -8 170 -74q27 -26 44 -56.5t24 -67t8.5 -62.5t1.5 -68q0 -50 -1.5 -75.5t-8.5 -71.5t-26 -83.5 t-50 -70.5q-33 -36 -69 -57.5t-83 -30t-78.5 -10.5t-91.5 -2h-749h-9q-44 0 -70 2t-66 18t-68 48q-54 63 -54 159zM565 463q0 -66 17 -86q19 -21 86 -21h245q100 0 123 29q11 12 19 37t8 47q0 36 -19 61q-14 19 -37 28.5t-38.5 11t-42.5 1.5h-361v-108zM565 883h344 q27 0 42 1.5t36 10.5t33 27q14 25 14 65q0 36 -22 62q-28 28 -105 28h-264q-41 0 -59 -16q-19 -17 -19 -62v-116z" />
<glyph unicode="C" horiz-adv-x="1320" d="M61 698q0 197 26.5 327.5t98.5 221.5q47 60 109 99.5t133 57.5t129.5 24t130.5 6h606v-357h-383h-64t-55 -2t-55 -6t-44.5 -12t-44 -19.5t-33.5 -30t-31 -42.5q-47 -83 -47 -258q0 -167 34 -238q13 -24 31.5 -42t36.5 -30t47 -20t50 -12t59 -6t59.5 -2.5t65.5 -0.5h397 v-356h-635q-181 0 -293.5 36.5t-195.5 139.5q-67 83 -99.5 203.5t-32.5 318.5z" />
<glyph unicode="D" horiz-adv-x="1593" d="M102 213v963q0 129 48 186q27 32 73.5 52t98.5 20h653q125 0 240.5 -44.5t187.5 -129.5q72 -84 100.5 -211.5t28.5 -323.5q0 -395 -111 -545q-58 -79 -164 -129.5t-247 -50.5h-672q-113 0 -170 53q-66 59 -66 160zM565 438.5q0 -6.5 0.5 -9t1.5 -8.5t2 -9t2.5 -8 t3.5 -8.5t5 -7.5t6 -7q25 -25 76 -25h63q201 0 268 82q64 74 64 291q0 213 -96 299q-43 38 -104 50t-157 12h-34q-48 0 -72 -17q-29 -21 -29 -80v-528v-8.5v-9.5v-8.5z" />
<glyph unicode="E" horiz-adv-x="1415" d="M102 229v983q0 107 62 164q63 58 174 58h1030v-349h-709q-48 0 -71 -20q-23 -18 -23 -70v-108h783v-312h-783v-155q0 -36 21 -53q22 -19 88 -19h700v-348h-1032q-55 0 -96 9.5t-78 39.5q-24 20 -38 40.5t-20 46t-7 43t-1 50.5z" />
<glyph unicode="F" horiz-adv-x="1425" d="M102 0v1192q0 116 66 180q64 62 186 62h1067v-349h-768q-45 0 -65 -20q-23 -23 -23 -76v-100h625v-324h-625v-565h-463z" />
<glyph unicode="G" horiz-adv-x="1556" d="M61 709q0 101 6.5 177.5t26 167t63 162t109.5 119.5q45 33 103.5 55.5t114 30.5t86.5 10.5t57 2.5h835v-340h-626q-173 0 -248 -119q-23 -37 -35 -87t-14 -84.5t-2 -86.5q0 -51 2 -86t14.5 -86t36.5 -90q63 -99 201 -99h139q52 0 78 23q24 24 24 84v295h463v-543 q0 -110 -70 -166q-58 -49 -153 -49h-678q-94 0 -195 31.5t-166 89.5q-56 49 -93 121t-53 158t-21 154.5t-5 154.5z" />
<glyph unicode="H" horiz-adv-x="1650" d="M102 0v1434h463v-508h520v508h463v-1434h-463v569h-520v-569h-463z" />
<glyph unicode="I" horiz-adv-x="667" d="M102 0v1434h463v-1434h-463z" />
<glyph unicode="J" horiz-adv-x="1048" d="M-41 0v356h207q154 0 227 58q26 21 44 48.5t27 51t13.5 59t5 55.5t0.5 56v750h463v-906q0 -245 -131 -378q-150 -150 -387 -150h-469z" />
<glyph unicode="K" horiz-adv-x="1624" d="M102 0v1434h463v-1434h-463zM631 735q0 41 12.5 86t32.5 72l385 541h549l-498 -592q-43 -54 -43 -103q0 -69 59 -133l558 -606h-558l-434 555q-63 78 -63 180z" />
<glyph unicode="L" horiz-adv-x="1363" d="M102 184v1250h463v-990q0 -48 23 -69q21 -19 74 -19h743v-356h-1083q-103 0 -156 45q-27 22 -45.5 59.5t-18.5 79.5z" />
<glyph unicode="M" horiz-adv-x="2193" d="M102 0v1198q0 52 16.5 93.5t40 67t60 44.5t66 27.5t69 13.5t58 5.5t43.5 0.5q44 0 78 -3t81 -16.5t82 -38t69.5 -70.5t55.5 -110l232 -696q5 -16 19 -40.5t24 -24.5t24 24.5t19 40.5l231 696q21 64 55.5 110t70 70.5t82.5 38t81.5 16.5t79.5 3q78 0 139 -12t97.5 -34 t61.5 -46.5t35.5 -55.5t14.5 -54t4 -50v-1198h-467l16 872q0 48 -18 48q-13 0 -29 -52l-221 -692q-12 -37 -22 -60.5t-31 -51.5t-48 -43.5t-71.5 -26t-103.5 -10.5t-103.5 10.5t-72 26.5t-48.5 43.5t-31 51t-22 60.5l-221 692q-15 52 -29 52q-16 0 -16 -48l14 -872h-465z " />
<glyph unicode="N" horiz-adv-x="1769" d="M102 0v1196q0 67 26.5 117.5t72.5 79.5t102 43t121 14q209 0 303 -133l522 -737q25 -35 39 -35q23 0 23 35v854h356v-1194q0 -24 -3 -47t-20.5 -64t-47.5 -70.5t-92.5 -52t-147.5 -22.5q-100 0 -175.5 27.5t-136.5 113.5l-518 731q-25 35 -39 35q-28 0 -28 -41v-850h-357 z" />
<glyph unicode="O" horiz-adv-x="1699" d="M61 717q0 73 1.5 123t10.5 124t25.5 128t48 112t76.5 99q55 50 128.5 82t165.5 45t161 16.5t172 3.5t172 -3.5t161 -16.5t165.5 -45t128.5 -82q45 -41 76.5 -99t47.5 -111.5t25 -128.5t10.5 -124t1.5 -123q0 -73 -1.5 -121t-10.5 -123t-25 -129t-47.5 -112.5 t-76.5 -100.5q-44 -41 -105 -69.5t-118.5 -43.5t-136.5 -23t-133 -9.5t-134 -1.5t-134 1.5t-133 9.5t-136.5 23t-118.5 43.5t-105 69.5q-45 42 -76.5 100.5t-48 113t-25.5 128.5t-10.5 123t-1.5 121zM537 717q0 -98 10.5 -160.5t42.5 -112.5q42 -65 100.5 -84.5t159.5 -19.5 q102 0 159 19.5t101 84.5q25 37 37 83.5t14 81.5t2 108q0 81 -1.5 113t-13.5 76.5t-38 82.5q-44 66 -101 85.5t-159 19.5q-101 0 -159.5 -20t-100.5 -85q-35 -52 -44 -109.5t-9 -162.5z" />
<glyph unicode="P" horiz-adv-x="1611" d="M102 0v1163q0 132 58 197q66 74 190 74h793q100 0 173 -21t128 -80q53 -56 79.5 -148.5t26.5 -242.5q0 -339 -129 -450q-47 -40 -116.5 -59t-135.5 -19h-604v-414h-463zM565 770h332h18.5h19.5t18 0.5t19.5 1.5t17 2.5t17.5 4.5t15 7t16 9t13 12q36 39 36 125 q0 78 -40 112q-18 15 -45 23t-46.5 9t-54.5 1h-256q-80 0 -80 -84v-223z" />
<glyph unicode="Q" horiz-adv-x="1730" d="M61 717q0 73 1.5 123t10.5 124t25.5 128t48 112t76.5 99q55 50 128.5 82t165.5 45t161 16.5t172 3.5t172 -3.5t161 -16.5t165.5 -45t128.5 -82q52 -47 86 -113.5t49.5 -145t20.5 -143.5t5 -145q0 -164 -18 -252.5t-53 -155.5v-8l159 16v-356h-876q-92 0 -161.5 3.5 t-165.5 15t-173 40t-127 72.5q-55 48 -90.5 120t-49.5 162t-18 153t-4 151zM537 725q0 -97 10.5 -159.5t42.5 -112.5q42 -65 101 -85t159 -20q102 0 159 19.5t101 85.5q25 37 37 83t14 81t2 108q0 81 -1.5 113t-13.5 76.5t-38 82.5q-44 66 -101 85.5t-159 19.5 q-101 0 -159.5 -20t-100.5 -85q-35 -52 -44 -109.5t-9 -162.5z" />
<glyph unicode="R" horiz-adv-x="1615" d="M102 0v1159q0 142 56 205q63 70 192 70h780q38 0 62.5 -1t69 -8.5t77 -21t70 -41.5t64.5 -68q73 -110 73 -327q0 -226 -53 -353q-38 -91 -108 -134.5t-158 -43.5h-62v-8l410 -428h-557l-277 373q-3 4 -15.5 20.5t-16.5 22t-14 20t-14.5 21.5t-12 20.5t-11 22.5t-7.5 21 t-5.5 23.5t-1.5 22.5v31q0 71 58.5 116.5t148.5 45.5h74q93 0 129 43q30 38 30 119q0 86 -34 120q-16 17 -41.5 25.5t-40 9t-47.5 0.5h-256q-50 0 -72 -22q-14 -13 -20 -29.5t-6.5 -25.5t-0.5 -35v-965h-463z" />
<glyph unicode="S" horiz-adv-x="1437" d="M41 1057q0 41 2.5 72t10.5 71.5t27.5 76.5t49.5 66q91 91 246 91h946v-357h-729q-60 0 -76 -8q-22 -11 -22 -39q0 -30 32.5 -47t87.5 -31l484 -129q131 -33 198 -100q99 -97 99 -328q0 -55 -3 -94t-19.5 -94.5t-47.5 -95.5q-29 -39 -63.5 -63t-77 -33.5t-71.5 -12 t-77 -2.5h-983v356h795q80 0 80 45q0 30 -24 45.5t-68 26.5l-555 156q-105 29 -164 108q-78 103 -78 320z" />
<glyph unicode="T" horiz-adv-x="1445" d="M-20 1077v357h1486v-357h-512v-1077h-462v1077h-512z" />
<glyph unicode="U" horiz-adv-x="1626" d="M102 573v861h463v-824q0 -41 3 -70t20 -67.5t49 -64.5q65 -52 176 -52t176 52q32 26 49.5 67t20 68t2.5 67v824h463v-861q0 -129 -31.5 -235.5t-118.5 -192.5q-100 -98 -236 -129.5t-325 -31.5t-325 31.5t-236 129.5q-87 86 -118.5 192.5t-31.5 235.5z" />
<glyph unicode="V" horiz-adv-x="1593" d="M-61 1434h495l336 -973q10 -31 27 -31q16 0 26 31l336 973h496l-498 -1219q-21 -52 -46.5 -89.5t-66.5 -72t-103 -52t-144 -17.5q-66 0 -119.5 12.5t-90.5 32.5t-67 51t-48.5 62.5t-35.5 72.5z" />
<glyph unicode="W" horiz-adv-x="2351" d="M-61 1434h471l237 -865q12 -43 27 -43q5 0 12.5 13t9.5 22l215 733q12 42 37 72.5t51.5 46t62 24.5t60 11t54.5 2q39 0 70.5 -4.5t73.5 -18t73.5 -47.5t46.5 -86l215 -733q2 -9 9.5 -22t12.5 -13q15 0 27 43l238 865h471l-351 -1153q-28 -91 -60 -149t-75.5 -91 t-93.5 -45t-123 -12q-80 0 -137 16t-94 50.5t-60 76.5t-41 104l-182 623q-1 2 -2.5 7.5t-3.5 10l-4 9t-4.5 7.5t-5.5 3t-5.5 -2.5t-5 -7.5t-4 -9.5t-3.5 -10t-3 -7.5l-182 -623q-18 -62 -41 -104t-60 -76.5t-94 -50.5t-137 -16q-73 0 -123 12t-93.5 45t-75.5 91t-60 149z " />
<glyph unicode="X" horiz-adv-x="1503" d="M-61 0l542 727l-526 707h553l244 -383l243 383h553l-526 -707l543 -727h-553l-260 403l-260 -403h-553z" />
<glyph unicode="Y" horiz-adv-x="1581" d="M-61 1434h495l357 -619l356 619h495l-620 -1037v-397h-463v397z" />
<glyph unicode="Z" horiz-adv-x="1382" d="M4 188q0 159 139 293l570 543q22 22 22 31q0 8 -11.5 15t-25.5 7h-630v357h1112q41 0 73 -7.5t62 -27t46.5 -59t16.5 -97.5q0 -50 -9 -89t-29 -71t-36.5 -50t-46.5 -48l-608 -579q-3 -3 -7.5 -6.5t-6.5 -5.5t-4 -6t-2 -9q0 -23 24 -23h711v-356h-1102q-26 0 -40 0.5 t-45.5 4t-50.5 10t-45 20t-40.5 33t-25.5 50.5t-11 70z" />
<glyph unicode="[" horiz-adv-x="841" d="M102 -336v1786h678v-266h-391v-1254h391v-266h-678z" />
<glyph unicode="\" horiz-adv-x="1060" d="M-20 1516h204l897 -1864h-204z" />
<glyph unicode="]" horiz-adv-x="841" d="M61 -70h392v1254h-392v266h678v-1786h-678v266z" />
<glyph unicode="^" horiz-adv-x="1253" d="M102 1202l396 301q25 19 61.5 31t67.5 12t67.5 -12t61.5 -31l395 -301l-139 -168l-307 240q-14 11 -37.5 21t-36.5 10t-36.5 -10t-37.5 -21l-309 -240z" />
<glyph unicode="_" horiz-adv-x="1130" d="M61 0v324h1008v-324h-1008z" />
<glyph unicode="`" horiz-adv-x="694" d="M61 1491l179 223l393 -325l-178 -222z" />
<glyph unicode="a" horiz-adv-x="1261" d="M37 362q0 42 3 74.5t11.5 72t28.5 72t51 56.5q39 30 85 38.5t108 8.5h475v16q0 43 -21 72q-33 43 -123 43h-544v270h718q175 0 269 -94q102 -100 102 -305v-455q0 -119 -53 -174q-34 -35 -79 -46t-105 -11h-639q-65 0 -113 10.5t-86 46.5q-39 35 -60 96.5t-24.5 105.5 t-3.5 103zM438 356q0 -30 17 -47q21 -18 55 -18h209q42 0 59 14q21 16 21 53v68h-285q-39 0 -59 -18q-17 -17 -17 -52z" />
<glyph unicode="b" horiz-adv-x="1251" d="M61 197v1237h402v-349h291q56 0 97 -4.5t98.5 -20t106.5 -54t85 -97.5q32 -52 49.5 -122.5t20.5 -119.5t3 -122q0 -245 -71 -365q-107 -180 -383 -180h-477q-115 0 -174 63q-48 51 -48 134zM463 389q0 -60 20 -80q20 -18 72 -18h82q57 0 88.5 18.5t50.5 55.5 q29 65 29 184q0 109 -27 170q-38 84 -133 84h-182v-414z" />
<glyph unicode="c" horiz-adv-x="1128" d="M37 528q0 72 3.5 122.5t14.5 113t37 115t66 94.5q107 112 327 112h584v-274h-397q-94 0 -140.5 -35t-66.5 -96q-19 -58 -19 -143q0 -130 33 -189q16 -26 40.5 -42.5t57 -23t52 -7.5t53.5 -1h6.5h5.5h398v-274h-627q-224 0 -332 129q-58 68 -77 162t-19 237z" />
<glyph unicode="d" horiz-adv-x="1249" d="M37 569q0 123 15 208t65 155q108 153 360 153h309v349h402v-1205q0 -106 -35 -155q-17 -25 -39.5 -41t-50 -22.5t-48 -8.5t-48.5 -2h-539q-126 0 -213.5 53.5t-128.5 155.5q-49 116 -49 360zM438 547q0 -133 29 -189q41 -79 143 -79h97q43 0 59 16q20 18 20 74v438h-176 q-83 0 -129 -66q-43 -61 -43 -194z" />
<glyph unicode="e" horiz-adv-x="1239" d="M37 530v63.5v64.5t1 56.5t3.5 58t6.5 49.5t10.5 51t15.5 41.5t22 42.5t29 34q67 68 191 87.5t321 19.5q192 0 290.5 -13t157.5 -61q117 -94 117 -365q0 -68 -12 -116.5t-53 -81.5q-37 -31 -107 -31h-592q-1 -8 -1 -15q0 -42 20 -73q15 -24 45 -36t53 -13.5t68 -1.5h14 h526v-291h-686q-46 0 -69 0.5t-62.5 3t-62 7.5t-54 15t-52.5 25t-44 37.5t-41 52.5q-33 55 -44 142t-11 247zM438 684h297q38 0 52 18t14 39q0 59 -74 74q-44 8 -106 8q-107 0 -140 -18q-44 -25 -44 -99q0 -11 1 -22z" />
<glyph unicode="f" horiz-adv-x="882" d="M8 799v286h162q3 81 39 156t108 123q130 86 514 86h43v-250q-132 -1 -183 -6.5t-75 -19.5q-46 -28 -46 -77q0 -6 1 -12h303v-286h-303v-799h-401v799h-162z" />
<glyph unicode="g" horiz-adv-x="1253" d="M37 547q0 157 24.5 247t85.5 160q61 72 139 101.5t206 29.5h446q132 0 190 -49q64 -55 64 -164v-751q0 -118 -18.5 -202t-67.5 -144q-114 -144 -385 -144h-608v263h483h15h16.5t16 0.5t18.5 1t17 2t17.5 3.5t16 5t16.5 7t14 9q38 30 48 78h-347q-53 0 -89 3.5t-82 16 t-84 42t-68 75.5q-84 131 -84 410zM446 532q0 -134 46 -186q22 -26 56 -39t56.5 -14.5t61.5 -1.5h10h115v418q0 48 -31 69q-24 17 -64 17h-45q-54 0 -93.5 -11.5t-68.5 -48.5q-43 -55 -43 -203z" />
<glyph unicode="h" horiz-adv-x="1280" d="M61 0v1434h402v-349h239q145 0 205 -11q93 -17 162 -68q72 -54 111 -134t39 -163v-709h-402v553q0 123 -61 186q-59 64 -166 64h-127v-803h-402z" />
<glyph unicode="i" horiz-adv-x="524" d="M61 0v1085h402v-1085h-402zM61 1194v240h402v-240h-402z" />
<glyph unicode="j" horiz-adv-x="688" d="M-82 -90h28q70 0 110 8q46 11 87 43q42 33 62 79.5t20 127.5v917h402v-1001q0 -252 -158 -354q-76 -49 -201 -66q-97 -13 -253 -13q-46 0 -97 1v258zM225 1194v240h402v-240h-402z" />
<glyph unicode="k" horiz-adv-x="1300" d="M61 0v1434h402v-1434h-402zM520 563q0 36 11 69.5t20.5 49t34.5 51.5l248 352h434l-330 -432q-29 -42 -29 -78q0 -46 41 -98l379 -477h-450l-295 389q-64 85 -64 174z" />
<glyph unicode="l" horiz-adv-x="524" d="M61 0v1434h402v-1434h-402z" />
<glyph unicode="m" horiz-adv-x="1761" d="M61 0v891q0 73 39 121q37 47 86 60t129 13h932q99 0 189 -27t149 -81q55 -52 85 -133t30 -160v-684h-402v602q0 109 -43 154q-43 47 -129 47h-45v-803h-401v803h-154q-36 0 -53 -17q-10 -12 -10 -55v-731h-402z" />
<glyph unicode="n" horiz-adv-x="1282" d="M61 0v891q0 90 45 133q28 28 76.5 42.5t80 16.5t81.5 2h377q116 0 202.5 -18t161.5 -78q136 -108 136 -321v-668h-402v551q0 65 -9 108.5t-36 77.5q-51 66 -166 66h-71q-37 0 -56 -17q-18 -16 -18 -61v-725h-402z" />
<glyph unicode="o" horiz-adv-x="1327" d="M37 543q0 316 143 444q56 49 144.5 75t160 31t179.5 5t179.5 -5t159.5 -31t144 -75q143 -128 143 -444q0 -317 -143 -445q-42 -37 -98.5 -60.5t-126 -33.5t-124 -13t-134.5 -3t-134.5 3t-124.5 13t-126.5 33.5t-98.5 60.5q-143 128 -143 445zM446 543q0 -135 39 -191 q8 -12 22.5 -25.5t58 -30.5t98.5 -17q127 0 176 73q41 56 41 191q0 137 -39 194q-52 70 -178 70q-127 0 -179 -70q-39 -56 -39 -194z" />
<glyph unicode="p" horiz-adv-x="1259" d="M61 -348v1227q0 115 74 168q53 38 154 38h504q205 0 313 -112q117 -121 117 -398q0 -298 -88 -425q-35 -49 -82 -81.5t-102 -46t-96.5 -18t-94.5 -4.5h-297v-348h-402zM463 291h176q106 0 149 84q25 47 25 170q0 109 -18 157q-12 31 -32.5 51.5t-44 28.5t-38.5 10.5 t-29 2.5h-141q-6 0 -17 -5t-16 -10q-14 -14 -14 -37v-452z" />
<glyph unicode="q" horiz-adv-x="1259" d="M37 512q0 312 98 440q53 69 133.5 101t153.5 32h557q59 0 109.5 -22t74.5 -55q35 -48 35 -152v-1204h-401v348h-373q-94 0 -172.5 39.5t-124.5 99.5q-54 69 -72 159t-18 214zM446 532q0 -112 23 -157q14 -29 34 -48t45.5 -26t40 -8.5t36.5 -1.5h172v428q0 45 -25 65 q-24 19 -72 19h-47q-137 0 -180 -82q-27 -49 -27 -189z" />
<glyph unicode="r" horiz-adv-x="858" d="M61 0v629q0 49 3.5 87.5t15 90t39.5 96.5t71 80q42 35 95.5 57t113 31t100 11.5t93.5 2.5h266v-282h-139q-69 0 -118.5 -15.5t-84.5 -62.5q-53 -71 -53 -207v-518h-402z" />
<glyph unicode="s" horiz-adv-x="1130" d="M37 788q0 120 51 195q40 60 99 81t153 21h725v-278h-590q-39 0 -47 -2q-18 -4 -18 -19q0 -17 22 -24q25 -8 42.5 -15.5t39.5 -15.5l274 -92q103 -35 159 -65t91 -82q56 -81 56 -209q0 -160 -90 -232q-65 -51 -179 -51h-776v291h592q13 0 25 8q10 7 10 20q0 15 -19 25 q-8 5 -122 43l-234 76q-172 58 -223 143q-41 67 -41 182z" />
<glyph unicode="t" horiz-adv-x="856" d="M-4 807v278h154v349h401v-349h309v-278h-309v-248q0 -154 70 -217q57 -51 176 -51h59v-291h-233q-44 0 -73.5 1.5t-80 7.5t-97 22.5t-85.5 42.5q-65 44 -101 117t-36 149v467h-154z" />
<glyph unicode="u" horiz-adv-x="1298" d="M61 494v591h402v-540q0 -131 39 -187q48 -67 170 -67h73q48 0 70 22q21 21 21 66v706h401v-864q0 -116 -68 -172q-60 -49 -176 -49h-491q-195 0 -303 92q-79 64 -108.5 164t-29.5 238z" />
<glyph unicode="v" horiz-adv-x="1286" d="M-49 1085h418l247 -626q12 -37 27 -37t27 37l248 626h417l-458 -999q-15 -32 -40.5 -53t-60 -30t-64 -12t-69.5 -3t-69 3t-63.5 12t-60 30t-40.5 53z" />
<glyph unicode="w" horiz-adv-x="1847" d="M-49 1085h381l164 -624q8 -33 20 -33q9 0 19 31l159 524q34 115 230 115q195 0 229 -115l160 -524q10 -31 18 -31q13 0 21 33l164 624h380l-247 -880q-15 -52 -32 -86t-48.5 -66.5t-82.5 -48.5t-124 -16q-71 0 -123.5 13t-83 37t-46.5 49t-26 58l-143 473q-1 2 -2.5 7.5 t-2.5 9.5t-3 8t-4 6t-4 2q-6 0 -17 -33l-143 -473q-10 -33 -26 -58t-46.5 -49t-83 -37t-123.5 -13q-73 0 -124 16t-82 48.5t-48 66.5t-32 86z" />
<glyph unicode="x" horiz-adv-x="1236" d="M-49 0l432 557l-397 528h456l176 -278l177 278h456l-397 -528l432 -557h-467l-201 307l-200 -307h-467z" />
<glyph unicode="y" horiz-adv-x="1298" d="M-49 1085h409l285 -688l301 688h402l-650 -1435h-401l170 350z" />
<glyph unicode="z" horiz-adv-x="1105" d="M4 209q0 75 24.5 123.5t75.5 87.5l469 358q17 13 17 19q0 10 -21 10h-526v278h858q14 0 28 -1.5t40 -6.5t47 -18.5t41.5 -34t32.5 -56t12 -81.5q0 -143 -98 -217l-455 -348q-17 -13 -17 -23q0 -8 19 -8h532v-291h-901q-87 0 -132.5 59.5t-45.5 149.5z" />
<glyph unicode="{" horiz-adv-x="673" d="M20 494v176q51 4 79 42t28 93v182q0 68 6 137q15 206 184 275q58 23 143.5 34.5t151.5 8.5v-266q-38 0 -81.5 -10.5t-65.5 -28.5q-51 -41 -51 -129v-226q0 -32 -3 -55.5t-12.5 -52.5t-32 -50.5t-57.5 -33.5v-17q35 -12 57.5 -33.5t32 -50.5t12.5 -52.5t3 -55.5v-225 q0 -88 51 -129q22 -18 65.5 -28.5t81.5 -10.5v-267q-66 -3 -151.5 8.5t-143.5 34.5q-169 69 -184 275q-6 69 -6 137v182q0 55 -28 93.5t-79 42.5z" />
<glyph unicode="|" horiz-adv-x="409" d="M102 -348v1864h205v-1864h-205z" />
<glyph unicode="}" horiz-adv-x="673" d="M61 -12q38 0 82 10.5t66 28.5q51 41 51 129v225q0 32 3 55.5t12.5 52.5t32 50.5t57.5 33.5v17q-35 12 -57.5 33.5t-32 50.5t-12.5 52.5t-3 55.5v226q0 88 -51 129q-22 18 -66 28.5t-82 10.5v266q66 3 151.5 -8.5t143.5 -34.5q170 -70 185 -275q6 -69 6 -137v-182 q0 -55 27.5 -93t78.5 -42v-176q-51 -4 -78.5 -42.5t-27.5 -93.5v-182q0 -68 -6 -137q-15 -205 -185 -275q-58 -23 -143.5 -34.5t-151.5 -8.5v267z" />
<glyph unicode="~" horiz-adv-x="1318" d="M102 817q36 50 86 95.5t95 70.5q79 45 163 45q72 0 152 -33l113 -47q70 -28 129 -28q88 0 145 51q44 41 68 84l164 -135q-83 -120 -175 -175q-91 -59 -202 -59q-70 0 -160 37l-96 43q-44 22 -125 22q-37 0 -62.5 -8t-56.5 -30q-43 -32 -74 -74z" />
<glyph unicode="&#xa7;" horiz-adv-x="1077" d="M102 582q0 73 33 137.5t84 99.5q52 38 133 49l-137 119q-94 80 -94 205q0 101 69 170q26 26 55.5 41.5t63 21.5t54.5 7.5t57 1.5h432v-267h-360q-6 0 -22 0.5t-23 0t-17 -2.5t-14 -8t-4 -16q0 -15 61 -66l369 -313q133 -112 133 -268q0 -76 -35 -138t-90 -92 q-60 -35 -139 -35l120 -106q123 -108 123 -238q0 -123 -102 -190q-75 -49 -209 -49h-420v266h322q78 0 96 8q20 9 21 29q0 4 -1.5 7.5t-4.5 8t-6.5 8.5t-10.5 10t-13 11t-16.5 14t-19.5 17l-365 311q-123 105 -123 246zM393 561q0 -63 43 -96l56 -43q48 -4 102 12 q45 13 67.5 32t22.5 64q0 61 -37 88l-78 58q-57 4 -98 -10q-34 -13 -56 -43t-22 -62z" />
<glyph unicode="&#xa9;" horiz-adv-x="1654" d="M102 719q0 81 4 140.5t18.5 133.5t41 131t74.5 115.5t116 103.5q56 38 111 60.5t119 32t111.5 12t129.5 2.5t129.5 -2.5t111.5 -12t119 -32t111 -60.5q68 -45 116 -103.5t74.5 -115.5t41 -131t18.5 -133.5t4 -140.5q0 -79 -4 -139t-19 -135t-41.5 -133.5t-74.5 -117.5 t-115 -104q-102 -67 -210 -86.5t-261 -19.5t-261 19.5t-210 86.5q-67 45 -115 104t-74.5 117.5t-41.5 133.5t-19 135t-4 139zM338 719q0 -74 5.5 -129.5t20.5 -118.5t49 -112t85 -83q55 -37 140.5 -57t122 -22t66.5 -2t67 2t122.5 22t140.5 57q51 34 85 83t49 112 t20.5 118.5t5.5 129.5q0 72 -5.5 127t-20.5 118.5t-49 114t-85 84.5q-116 76 -330 76q-213 0 -329 -76q-51 -34 -85 -84.5t-49 -114t-20.5 -118.5t-5.5 -127zM469 725q0 48 1.5 74.5t7.5 67.5t22.5 75t42.5 64q47 54 99 71t128 17h311v-179h-213q-22 0 -36 -1.5t-33 -6.5 t-34.5 -18t-27.5 -33q-18 -33 -18 -131q0 -90 18 -125q19 -35 44.5 -45t70.5 -10h256v-183h-344q-50 0 -81 3.5t-73 25t-73 62.5q-68 90 -68 272z" />
<glyph unicode="&#xab;" horiz-adv-x="1302" d="M102 575q0 91 54 160l297 387l254 -196l-199 -285q-23 -35 -23 -66t23 -65l199 -285l-254 -196l-297 387q-54 69 -54 159zM668 575q0 50 61 132l209 272l262 -197l-110 -157q-23 -32 -23 -50q0 -17 23 -49l110 -157l-262 -197l-209 272q-61 82 -61 131z" />
<glyph unicode="&#xac;" horiz-adv-x="1449" d="M102 530v267h1246v-590h-287v323h-959z" />
<glyph unicode="&#xad;" d="M61 387v324h875v-324h-875z" />
<glyph unicode="&#xae;" horiz-adv-x="1093" d="M102 1008q0 63 3 105t24 107t61 109q35 40 82 65.5t100.5 35.5t89.5 13t85 3q107 0 190 -19t146 -79q37 -35 60.5 -79t33 -94.5t12 -85t2.5 -81.5q0 -231 -100 -336q-63 -67 -146.5 -88t-197.5 -21q-58 0 -98.5 3.5t-92.5 16t-96 41.5t-80 74q-35 45 -53.5 106 t-21.5 101.5t-3 102.5zM240 1012q0 -168 45 -230q33 -44 103.5 -68t158.5 -24q151 0 223 58q84 69 84 251q0 183 -59 250q-60 70 -248 70q-183 0 -248 -70q-59 -63 -59 -237zM317 797v383q0 32 13 45q7 9 27.5 11.5t76.5 2.5h180q80 0 109 -16q22 -13 33 -40.5t12.5 -47 t1.5 -52.5q0 -151 -96 -151h-23l127 -135h-176l-78 106q-2 2 -6.5 9t-6 9t-5 8t-4.5 9.5t-3 9t-2.5 12t-0.5 13.5q0 30 13.5 47.5t39.5 17.5h24q28 0 37 6q13 13 13 29v23q0 15 -11 26q-9 11 -47 11h-57q-32 0 -39 -7q-8 -4 -8 -43v-286h-144z" />
<glyph unicode="&#xb0;" horiz-adv-x="610" d="M61 1329q0 101 71.5 172.5t172.5 71.5t172.5 -71.5t71.5 -172.5t-71.5 -172.5t-172.5 -71.5t-172.5 71.5t-71.5 172.5zM184 1329q0 -51 35 -86t86 -35t86 35t35 86t-35 86t-86 35t-86 -35t-35 -86z" />
<glyph unicode="&#xb1;" horiz-adv-x="1449" d="M102 47v266h1246v-266h-1246zM102 922v266h484v481h278v-481h484v-266h-484v-482h-278v482h-484z" />
<glyph unicode="&#xb5;" horiz-adv-x="1372" d="M102 -362v1447h404v-614q0 -96 45 -145q45 -52 133 -52q75 0 125 48q26 26 41.5 65t15.5 78v620h404v-1085h-383v150q-24 -75 -80 -118.5t-125 -43.5q-71 0 -123.5 40t-73.5 107v-497h-383z" />
<glyph unicode="&#xb6;" horiz-adv-x="1560" d="M102 999q0 255 136 361q59 47 127 60.5t163 13.5h971v-267h-133v-1515h-279v1515h-126v-1515h-279v940h-193q-105 0 -177.5 24t-131.5 101q-78 102 -78 282zM389 1012q0 -52 21 -90q21 -39 51.5 -51.5t73.5 -12.5h147v309h-141q-42 0 -68.5 -8t-50.5 -37 q-33 -41 -33 -110z" />
<glyph unicode="&#xb7;" horiz-adv-x="610" d="M102 512v369h406v-369h-406z" />
<glyph unicode="&#xbb;" horiz-adv-x="1302" d="M102 369l111 157q23 32 23 49q0 18 -23 50l-111 157l263 197l208 -272q62 -84 62 -132q0 -47 -62 -131l-208 -272zM596 225l199 285q22 33 22 65q0 33 -22 66l-199 285l254 196l297 -387q53 -67 53 -160q0 -92 -53 -159l-297 -387z" />
<glyph unicode="&#x401;" horiz-adv-x="1435" d="M102 229v983q0 107 62 164q63 58 174 58h1030v-349h-709q-48 0 -71 -20q-23 -18 -23 -70v-108h783v-312h-783v-155q0 -36 21 -53q22 -19 88 -19h700v-348h-1032q-55 0 -96 9.5t-78 39.5q-24 20 -38 40.5t-20 46t-7 43t-1 50.5zM270 1528v244h373v-244h-373zM817 1528v244 h373v-244h-373z" />
<glyph unicode="&#x402;" horiz-adv-x="1832" d="M-41 1077v357h1389v-357h-596v-180h645q185 0 272 -129q28 -42 43 -101.5t17 -97.5t2 -94q0 -119 -15.5 -212t-64.5 -154q-86 -109 -275 -109h-377v356h123q94 0 119 33q14 19 14 82q0 68 -26 94q-25 25 -82 25h-395v-590h-463v1077h-330z" />
<glyph unicode="&#x403;" horiz-adv-x="1294" d="M0 0v1171q0 41 2.5 67t15.5 62.5t39 63.5q29 31 74.5 50.5t95.5 19.5h1067v-357h-735h-12h-14.5t-13 -0.5t-13.5 -2t-11 -3.5t-11.5 -5.5t-8.5 -8.5q-12 -16 -12 -72v-985h-463zM326 1737l393 325l178 -223l-393 -323z" />
<glyph unicode="&#x404;" horiz-adv-x="1273" d="M0 729q0 88 4 152.5t17.5 145.5t44.5 147.5t79 115.5q144 144 424 144h686v-357h-436q-154 0 -239 -45q-87 -45 -105 -139h752v-324h-752q-2 -53 26 -102.5t97 -77.5q83 -33 248 -33h428v-356h-705q-260 0 -401 123q-97 86 -132.5 228t-35.5 378z" />
<glyph unicode="&#x405;" horiz-adv-x="1437" d="M41 1057q0 41 2.5 72t10.5 71.5t27.5 76.5t49.5 66q91 91 246 91h946v-357h-729q-60 0 -76 -8q-22 -11 -22 -39q0 -30 32.5 -47t87.5 -31l484 -129q131 -33 198 -100q99 -97 99 -328q0 -55 -3 -94t-19.5 -94.5t-47.5 -95.5q-29 -39 -63.5 -63t-77 -33.5t-71.5 -12 t-77 -2.5h-983v356h795q80 0 80 45q0 30 -24 45.5t-68 26.5l-555 156q-105 29 -164 108q-78 103 -78 320z" />
<glyph unicode="&#x406;" horiz-adv-x="667" d="M102 0v1434h463v-1434h-463z" />
<glyph unicode="&#x407;" horiz-adv-x="806" d="M-41 1528v264h365v-264h-365zM172 0v1434h463v-1434h-463zM483 1528v264h365v-264h-365z" />
<glyph unicode="&#x408;" horiz-adv-x="1048" d="M-41 0v356h207q154 0 227 58q26 21 44 48.5t27 51t13.5 59t5 55.5t0.5 56v750h463v-906q0 -245 -131 -378q-150 -150 -387 -150h-469z" />
<glyph unicode="&#x409;" horiz-adv-x="2650" d="M-41 0l823 1329q42 69 117.5 95t245.5 26q166 0 254 -21t126 -71.5t38 -145.5v-317h643q40 0 70 -3.5t73.5 -16t80 -44t62.5 -79.5q56 -106 56 -306q0 -204 -68 -307q-37 -54 -110 -96.5t-177 -42.5h-888q-84 0 -146 70q-59 68 -59 200v777q0 36 -23 36q-15 0 -26 -22 l-566 -1061h-526zM1563 442q0 -45 12 -63q16 -23 76 -23h239h13q97 0 122 13q48 28 48 100q0 35 -10.5 58.5t-43.5 35.5q-23 8 -121 8h-335v-129z" />
<glyph unicode="&#x40a;" horiz-adv-x="2676" d="M143 0v1434h463v-508h520v508h463v-508h643q42 0 73 -4.5t73 -20.5t78 -53.5t63 -95.5q32 -68 43.5 -138t11.5 -168q0 -209 -67 -307q-37 -54 -110 -96.5t-177 -42.5h-889q-83 0 -145 70q-60 69 -60 200v303h-520v-573h-463zM1589 442q0 -40 13 -63q5 -8 11.5 -13.5 t16.5 -7.5t14.5 -2.5t17.5 0t15 0.5h240h13q97 0 122 13q47 27 47 100q0 24 -2.5 39t-15 32t-35.5 25t-121 8h-336v-131z" />
<glyph unicode="&#x40b;" horiz-adv-x="1820" d="M-41 1077v357h1389v-357h-596v-180h665q140 0 213 -61q30 -25 49.5 -56.5t27 -67.5t9.5 -60t2 -60v-592h-463v485q0 60 -28 84q-26 21 -94 21h-381v-590h-463v1077h-330z" />
<glyph unicode="&#x40c;" horiz-adv-x="1583" d="M0 0v1434h463v-1434h-463zM436 1737l393 325l179 -223l-394 -323zM508 733q0 70 65 160l385 541h549l-497 -592q-60 -71 -60 -107q0 -48 76 -129l557 -606h-557l-434 555q-84 108 -84 178z" />
<glyph unicode="&#x40e;" horiz-adv-x="1619" d="M0 1434h516l299 -611l301 611h504l-772 -1434h-504l229 408zM276 1864h289q26 -62 74 -101q31 -24 78 -37.5t92 -13.5t94 13.5t78 37.5q42 33 72 101h288q-26 -74 -75 -151t-107 -120q-65 -49 -158 -73.5t-192 -24.5t-192 24.5t-158 73.5q-58 43 -108 120t-75 151z" />
<glyph unicode="&#x40f;" horiz-adv-x="1650" d="M102 246v1188h463v-992q0 -37 13 -59q8 -13 19 -19t19.5 -7t24.5 -1h369q25 0 37 4t26 23q6 9 9 17.5t3.5 13t0 14.5t-0.5 14v992h463v-1188q0 -39 -2.5 -64t-19 -64t-47.5 -65q-30 -25 -76.5 -39t-93.5 -14h-252v-348h-463v348h-252q-47 0 -93.5 14t-76.5 39 q-31 26 -48 65t-19.5 64.5t-2.5 63.5z" />
<glyph unicode="&#x410;" horiz-adv-x="1634" d="M-41 0l530 1276q19 44 40 72.5t57.5 53.5t93 36.5t137.5 11.5q48 0 81 -2.5t73 -12.5t69 -28.5t57 -51t48 -79.5l530 -1276h-487l-113 295h-516l-113 -295h-487zM670 623h295l-129 362q-12 31 -19 31q-6 0 -18 -31z" />
<glyph unicode="&#x411;" horiz-adv-x="1605" d="M102 201v1003q0 61 19 106.5t44.5 68.5t60.5 36.5t56.5 16t43.5 2.5h1134v-357h-807q-31 0 -49.5 -5t-26.5 -18.5t-10 -26t-2 -36.5v-102h662q78 0 138.5 -26.5t96.5 -67.5q82 -95 82 -338q0 -112 -16 -198.5t-64 -147.5q-15 -20 -37 -41t-77 -45.5t-119 -24.5h-928 q-89 0 -145 56.5t-56 144.5zM565 451q0 -35 4.5 -55t19 -28.5t26.5 -10t40 -1.5h9h272q77 0 106 27q27 25 27 88q0 21 -1 31.5t-8 25t-22 25.5q-31 25 -102 25h-371v-127z" />
<glyph unicode="&#x412;" horiz-adv-x="1587" d="M102 227v975q0 104 50 160q27 31 71.5 51.5t89.5 20.5h779q99 0 177.5 -18.5t133.5 -76.5q90 -92 90 -307q0 -71 -13.5 -122.5t-58.5 -100.5q-61 -66 -143 -72v-8q100 -8 170 -74q27 -26 44 -56.5t24 -67t8.5 -62.5t1.5 -68q0 -50 -1.5 -75.5t-8.5 -71.5t-26 -83.5 t-50 -70.5q-33 -36 -69 -57.5t-83 -30t-78.5 -10.5t-91.5 -2h-749h-9q-44 0 -70 2t-66 18t-68 48q-54 63 -54 159zM565 463q0 -66 17 -86q19 -21 86 -21h245q100 0 123 29q11 12 19 37t8 47q0 36 -19 61q-14 19 -37 28.5t-38.5 11t-42.5 1.5h-361v-108zM565 883h344 q27 0 42 1.5t36 10.5t33 27q14 25 14 65q0 36 -22 62q-28 28 -105 28h-264q-41 0 -59 -16q-19 -17 -19 -62v-116z" />
<glyph unicode="&#x413;" horiz-adv-x="1376" d="M102 0v1171q0 40 2.5 66.5t16 62.5t39.5 64q29 31 74.5 50.5t95.5 19.5h1067v-357h-735h-12h-14.5t-13 -0.5t-13.5 -2t-11 -3.5t-11.5 -5.5t-8.5 -8.5q-13 -17 -13 -72v-985h-463z" />
<glyph unicode="&#x414;" horiz-adv-x="1675" d="M-20 0v356h141l387 932q10 26 22 45t37 42.5t58.5 38.5t88 25.5t124.5 10.5q86 0 148 -14t97.5 -40.5t53 -50.5t30.5 -57l385 -932h144v-356h-1716zM586 356h504l-230 623q-12 37 -22 37q-11 0 -23 -37z" />
<glyph unicode="&#x415;" horiz-adv-x="1415" d="M102 229v983q0 107 62 164q63 58 174 58h1030v-349h-709q-48 0 -71 -20q-23 -18 -23 -70v-108h783v-312h-783v-155q0 -36 21 -53q22 -19 88 -19h700v-348h-1032q-55 0 -96 9.5t-78 39.5q-24 20 -38 40.5t-20 46t-7 43t-1 50.5z" />
<glyph unicode="&#x416;" horiz-adv-x="2457" d="M-41 0l469 606q70 93 70 131q0 8 -3 18t-6 17t-10 19t-11 17t-13.5 18.5t-12.5 17.5l-409 590h532l322 -533q65 -107 65 -160q0 -66 -84 -196l-348 -545h-561zM997 0v1434h463v-1434h-463zM1505 741q0 53 66 160l330 533h532l-418 -590q-2 -3 -10.5 -14.5t-11.5 -16 l-10 -15t-9.5 -16.5t-6.5 -14.5t-5.5 -16t-1.5 -14.5q0 -38 70 -131l469 -606h-562l-348 545q-84 130 -84 196z" />
<glyph unicode="&#x417;" horiz-adv-x="1449" d="M82 0v356h643q112 0 145 17q43 27 43 92q0 60 -39 86q-18 11 -48.5 14.5t-98.5 3.5h-618v312h608h17.5h19t17.5 0.5t19 1t17 1.5t17.5 3t14.5 5t14 6.5t11 8.5q27 25 27 82q0 30 -7.5 48.5t-31.5 29.5q-27 10 -129 10h-633v357h795q55 0 83 -0.5t79.5 -5.5t83.5 -15 t70.5 -30.5t66.5 -49.5q51 -54 66.5 -126t15.5 -169q0 -82 -15 -139t-65 -104q-51 -51 -129 -64v-8q141 5 205 -105q28 -47 35.5 -100.5t7.5 -130.5q0 -47 -3.5 -84t-15 -84.5t-38 -87.5t-66.5 -68q-25 -18 -60 -31t-63 -19.5t-74.5 -9.5t-67.5 -3.5t-70.5 0t-56.5 0.5h-792 z" />
<glyph unicode="&#x418;" horiz-adv-x="1765" d="M102 328v1106h471l-20 -822v-22q0 -49 25 -49q8 0 16 11t24 40l396 690q26 46 59.5 79t63.5 49.5t67.5 26t62 11.5t56.5 2q68 0 122 -14t89 -35t60.5 -54t38 -62t20 -68t9 -64t1.5 -57v-1096h-471l20 842q0 13 -0.5 20t-2 16t-6 13t-11.5 4q-10 0 -41 -51q-8 -12 -12 -19 l-408 -696q-17 -30 -38 -52t-55.5 -45t-89.5 -35.5t-126 -12.5q-82 0 -141.5 20t-93.5 51t-53.5 78.5t-25.5 92t-6 102.5z" />
<glyph unicode="&#x419;" horiz-adv-x="1765" d="M102 328v1106h471l-20 -822q0 -54 10 -65q5 -6 15 -6q8 0 16 11t24 40l396 690q26 46 59.5 79t63.5 49.5t67.5 26t62 11.5t56.5 2q68 0 122 -14t89 -35t60.5 -54t38 -62t20 -68t9 -64t1.5 -57v-1096h-471l20 842q0 13 -0.5 20t-2 16t-6 13t-11.5 4q-10 0 -41 -51 q-8 -12 -12 -19l-408 -696q-17 -30 -38 -52t-55.5 -45t-89.5 -35.5t-126 -12.5q-82 0 -141.5 20t-93.5 51t-53.5 78.5t-25.5 92t-6 102.5zM344 1819h289q26 -62 74 -101q31 -24 78 -37.5t92 -13.5t94 13.5t78 37.5q40 32 71 101h289q-26 -74 -75 -151t-107 -120 q-65 -49 -158 -73.5t-192 -24.5t-192.5 24.5t-158.5 73.5q-58 43 -107 120t-75 151z" />
<glyph unicode="&#x41a;" horiz-adv-x="1665" d="M143 0v1434h463v-1434h-463zM651 733q0 68 66 160l385 541h549l-498 -592q-59 -70 -59 -107q0 -49 75 -129l557 -606h-557l-434 555q-84 108 -84 178z" />
<glyph unicode="&#x41b;" horiz-adv-x="1597" d="M-61 0l550 1303q62 147 310 147q247 0 309 -147l551 -1303h-492l-346 948l-5 12q-4 11 -8.5 17t-8.5 6q-3 0 -7 -4.5t-6.5 -9.5t-5.5 -12.5t-4 -8.5l-346 -948h-491z" />
<glyph unicode="&#x41c;" horiz-adv-x="2193" d="M102 0v1198q0 52 16.5 93.5t40 67t60 44.5t66 27.5t69 13.5t58 5.5t43.5 0.5q44 0 78 -3t81 -16.5t82 -38t69.5 -70.5t55.5 -110l232 -696q5 -16 19 -40.5t24 -24.5t24 24.5t19 40.5l231 696q21 64 55.5 110t70 70.5t82.5 38t81.5 16.5t79.5 3q78 0 139 -12t97.5 -34 t61.5 -46.5t35.5 -55.5t14.5 -54t4 -50v-1198h-467l16 872q0 48 -18 48q-13 0 -29 -52l-221 -692q-12 -37 -22 -60.5t-31 -51.5t-48 -43.5t-71.5 -26t-103.5 -10.5t-103.5 10.5t-72 26.5t-48.5 43.5t-31 51t-22 60.5l-221 692q-15 52 -29 52q-16 0 -16 -48l14 -872h-465z " />
<glyph unicode="&#x41d;" horiz-adv-x="1650" d="M102 0v1434h463v-508h520v508h463v-1434h-463v569h-520v-569h-463z" />
<glyph unicode="&#x41e;" horiz-adv-x="1699" d="M61 717q0 73 1.5 123t10.5 124t25.5 128t48 112t76.5 99q55 50 128.5 82t165.5 45t161 16.5t172 3.5t172 -3.5t161 -16.5t165.5 -45t128.5 -82q45 -41 76.5 -99t47.5 -111.5t25 -128.5t10.5 -124t1.5 -123q0 -73 -1.5 -121t-10.5 -123t-25 -129t-47.5 -112.5 t-76.5 -100.5q-44 -41 -105 -69.5t-118.5 -43.5t-136.5 -23t-133 -9.5t-134 -1.5t-134 1.5t-133 9.5t-136.5 23t-118.5 43.5t-105 69.5q-45 42 -76.5 100.5t-48 113t-25.5 128.5t-10.5 123t-1.5 121zM537 717q0 -98 10.5 -160.5t42.5 -112.5q42 -65 100.5 -84.5t159.5 -19.5 q102 0 159 19.5t101 84.5q25 37 37 83.5t14 81.5t2 108q0 81 -1.5 113t-13.5 76.5t-38 82.5q-44 66 -101 85.5t-159 19.5q-101 0 -159.5 -20t-100.5 -85q-35 -52 -44 -109.5t-9 -162.5z" />
<glyph unicode="&#x41f;" horiz-adv-x="1638" d="M102 0v1227q0 89 56 145q19 19 43 31.5t39.5 18.5t48 9t40.5 3h44h897q77 0 124 -11t87 -51q55 -55 55 -145v-1227h-463v995q0 54 -20 74q-21 21 -72 21h-324h-7h-7.5h-7t-7.5 -0.5t-7 -1.5t-7.5 -2t-6.5 -2.5t-7 -3.5t-7 -5t-7 -6q-21 -21 -21 -74v-995h-463z" />
<glyph unicode="&#x420;" horiz-adv-x="1611" d="M102 0v1163q0 132 58 197q66 74 190 74h793q100 0 173 -21t128 -80q53 -56 79.5 -148.5t26.5 -242.5q0 -339 -129 -450q-47 -40 -116.5 -59t-135.5 -19h-604v-414h-463zM565 770h332h18.5h19.5t18 0.5t19.5 1.5t17 2.5t17.5 4.5t15 7t16 9t13 12q36 39 36 125 q0 78 -40 112q-18 15 -45 23t-46.5 9t-54.5 1h-256q-80 0 -80 -84v-223z" />
<glyph unicode="&#x421;" horiz-adv-x="1357" d="M61 698q0 197 26.5 327.5t98.5 221.5q47 60 109 99.5t133 57.5t129.5 24t130.5 6h606v-357h-383h-64t-55 -2t-55 -6t-44.5 -12t-44 -19.5t-33.5 -30t-31 -42.5q-47 -83 -47 -258q0 -167 34 -238q13 -24 31.5 -42t36.5 -30t47 -20t50 -12t59 -6t59.5 -2.5t65.5 -0.5h397 v-356h-635q-181 0 -293.5 36.5t-195.5 139.5q-67 83 -99.5 203.5t-32.5 318.5z" />
<glyph unicode="&#x422;" horiz-adv-x="1445" d="M-20 1077v357h1486v-357h-512v-1077h-462v1077h-512z" />
<glyph unicode="&#x423;" horiz-adv-x="1538" d="M-41 1434h516l299 -611l301 611h504l-772 -1434h-504l229 408z" />
<glyph unicode="&#x424;" horiz-adv-x="2039" d="M61 735q0 288 78 420q21 35 47 60t59.5 41.5t65.5 26.5t78 14.5t84 6t96 1.5h219v129h463v-129h219q58 0 96 -1.5t84 -6t78.5 -14.5t66 -26.5t59.5 -41.5t47 -60q77 -131 77 -420q0 -292 -63 -418q-28 -56 -70 -92t-99 -51t-103 -19.5t-115 -4.5h-277v-150h-463v150h-276 q-69 0 -115 4.5t-103 19.5t-99 51t-70 92q-64 128 -64 418zM537 725q0 -75 16 -119q20 -50 65 -75t130 -25h40v442h-57q-139 0 -176 -84q-18 -40 -18 -139zM1251 506h41q85 0 130 25t65 75q16 44 16 119q0 99 -18 139q-37 84 -176 84h-58v-442z" />
<glyph unicode="&#x425;" horiz-adv-x="1544" d="M-41 0l543 727l-527 707h553l244 -383l244 383h553l-527 -707l543 -727h-553l-260 403l-260 -403h-553z" />
<glyph unicode="&#x426;" horiz-adv-x="1724" d="M102 262v1172h463v-945q0 -86 19 -108q23 -25 94 -25h412v1078h462v-1078h193v-356h-1364q-93 0 -129 10q-42 12 -76 43q-74 66 -74 209z" />
<glyph unicode="&#x427;" horiz-adv-x="1626" d="M82 963v471h463v-357v-13v-16t0.5 -15t1.5 -16.5t2 -15t3.5 -16t5.5 -13.5t7.5 -13.5t9.5 -10.5q17 -16 48 -20t88 -4h350v510h463v-1434h-463v567h-649q-76 0 -153 35.5t-122 114.5q-55 99 -55 246z" />
<glyph unicode="&#x428;" horiz-adv-x="2318" d="M102 215v1219h463v-977q0 -55 17 -78q18 -23 67 -23h279v1078h463v-1078h278q50 0 68 23q16 21 16 78v977h463v-1219q0 -103 -57 -158q-60 -57 -168 -57h-1663q-105 0 -166 57q-60 55 -60 158z" />
<glyph unicode="&#x429;" horiz-adv-x="2387" d="M102 215v1219h463v-977q0 -55 17 -78q18 -23 67 -23h279v1078h463v-1078h362v1078h463v-1078h192v-356h-2080q-105 0 -166 57q-60 55 -60 158z" />
<glyph unicode="&#x42a;" horiz-adv-x="1777" d="M-20 1077v357h516q113 0 178 -70q57 -62 57 -158v-291h643q40 0 71.5 -4.5t74 -19t79 -50t62.5 -89.5q55 -115 55 -301q0 -211 -67 -312q-37 -54 -110 -96.5t-177 -42.5h-889q-83 0 -145 70q-60 69 -60 200v711q0 53 -16 74q-18 22 -53 22h-219zM731 442q0 -47 12 -63 q16 -23 76 -23h240h28h26h20.5t19 1t15 2.5t14.5 4t12 5.5q47 25 47 114q0 23 -2.5 39t-15.5 34.5t-37 27.5q-23 8 -119 8h-336v-150z" />
<glyph unicode="&#x42b;" horiz-adv-x="2246" d="M102 270v1164h463v-519h643q40 0 71.5 -4.5t74 -19t79 -50t62.5 -89.5q55 -115 55 -301q0 -211 -67 -312q-37 -54 -110 -96.5t-177 -42.5h-889q-83 0 -145 70q-60 69 -60 200zM565 442q0 -46 13 -63q16 -23 75 -23h240h28h26h20.5t19 1t15 2.5t14.5 4t12 5.5 q47 25 47 114q0 23 -2.5 39t-15.5 34.5t-37 27.5q-23 8 -119 8h-336v-150zM1681 0v1434h463v-1434h-463z" />
<glyph unicode="&#x42c;" horiz-adv-x="1611" d="M102 270v1164h463v-519h643q40 0 71.5 -4.5t74 -19t79 -50t62.5 -89.5q55 -115 55 -301q0 -211 -67 -312q-37 -54 -110 -96.5t-177 -42.5h-889q-83 0 -145 70q-60 69 -60 200zM565 442q0 -46 13 -63q16 -23 75 -23h240h28h26h20.5t19 1t15 2.5t14.5 4t12 5.5 q47 25 47 114q0 23 -2.5 39t-15.5 34.5t-37 27.5q-23 8 -119 8h-336v-150z" />
<glyph unicode="&#x42d;" horiz-adv-x="1396" d="M61 0v356h428q165 0 248 33q69 28 97 77.5t26 102.5h-751v324h751q-18 95 -104 139q-85 45 -240 45h-436v357h686q280 0 424 -144q48 -49 79 -115.5t44.5 -147.5t17.5 -145.5t4 -152.5q0 -236 -35.5 -378t-132.5 -228q-141 -123 -401 -123h-705z" />
<glyph unicode="&#x42e;" horiz-adv-x="2394" d="M102 0v1434h463v-541h195q2 110 41 224t117 186q44 41 105 69.5t118 43.5t135.5 23t132.5 9.5t135 1.5q103 0 172 -3.5t161 -16.5t165.5 -45t128.5 -82q45 -41 76.5 -99t48 -112t25.5 -128t10.5 -124t1.5 -123q0 -72 -1.5 -121t-10.5 -123t-25.5 -128.5t-48 -113 t-76.5 -100.5q-44 -41 -105 -69.5t-118.5 -43.5t-136.5 -23t-133 -9.5t-134 -1.5q-102 0 -170.5 3.5t-161 16.5t-166.5 45t-128 82q-77 72 -119.5 195t-42.5 249h-191v-575h-463zM1231 717q0 -98 10.5 -160.5t42.5 -112.5q42 -65 100.5 -84.5t159.5 -19.5q102 0 159 19.5 t101 84.5q36 53 45 110.5t9 162.5q0 79 -1.5 112.5t-14 77.5t-38.5 82q-44 66 -101 85.5t-159 19.5q-101 0 -159.5 -20t-100.5 -85q-35 -52 -44 -109.5t-9 -162.5z" />
<glyph unicode="&#x42f;" horiz-adv-x="1619" d="M41 0l399 422v6h-61q-40 0 -81 10.5t-88 43t-75 83.5q-40 70 -51.5 164t-11.5 225q0 74 3 120t19 108.5t47 111.5q53 83 133.5 111.5t210.5 28.5h824q40 0 85 -18.5t72 -47.5q52 -57 52 -168v-1200h-463v983q0 47 -27 72q-22 22 -72 22h-290q-69 0 -103 -43 q-28 -37 -28 -112q0 -81 16 -105q32 -61 123 -61h94q23 0 43 -1.5t53 -9.5t55.5 -22t40 -42t17.5 -67v-32q0 -40 -14.5 -79t-28.5 -59t-45 -61l-291 -383h-557z" />
<glyph unicode="&#x430;" horiz-adv-x="1261" d="M37 362q0 42 3 74.5t11.5 72t28.5 72t51 56.5q39 30 85 38.5t108 8.5h475v16q0 43 -21 72q-33 43 -123 43h-544v270h718q175 0 269 -94q102 -100 102 -305v-455q0 -119 -53 -174q-34 -35 -79 -46t-105 -11h-639q-65 0 -113 10.5t-86 46.5q-39 35 -60 96.5t-24.5 105.5 t-3.5 103zM438 356q0 -30 17 -47q21 -18 55 -18h209q42 0 59 14q21 16 21 53v68h-285q-39 0 -59 -18q-17 -17 -17 -52z" />
<glyph unicode="&#x431;" horiz-adv-x="1284" d="M61 449v557q0 162 66 260q56 86 154.5 127t193.5 41h715v-275h-477q-43 0 -65 -1t-63.5 -11t-66.5 -31q-60 -48 -55 -133h344q51 0 91 -4t95 -16.5t102.5 -43.5t80.5 -79q44 -62 57.5 -142t13.5 -190q0 -123 -14.5 -211t-63.5 -158q-18 -28 -39.5 -49.5t-49.5 -37 t-52.5 -27t-63.5 -18.5t-67 -11t-78 -5.5t-81.5 -2t-92.5 -0.5q-71 0 -113 1t-102.5 5.5t-100 15t-83 28t-75 46t-54.5 66.5q-26 43 -39 99t-15 94.5t-2 105.5zM463 426q0 -30 15 -64t40 -53q37 -30 123 -30q87 0 129 24q19 12 33 30.5t20.5 35t10 41.5t4 39t0.5 38 q0 113 -23 160q-13 28 -46 53t-87 25h-219v-299z" />
<glyph unicode="&#x432;" horiz-adv-x="1261" d="M61 199v667q0 53 18.5 99t49.5 73q58 47 209 47h514q130 0 183 -12q75 -16 118 -61q66 -68 66 -207q0 -126 -62 -184q-58 -55 -156 -62v-4q42 -3 87.5 -20.5t74.5 -45.5q62 -60 62 -186q0 -161 -76 -233q-22 -21 -51 -35t-52 -21t-63.5 -10t-59.5 -3.5t-65 -0.5h-530 q-49 0 -76.5 1.5t-66.5 12t-64 31.5q-60 47 -60 154zM463 356q0 -33 12 -47q14 -18 51 -18h191q5 0 21.5 -1t23 0t18.5 6t23 15q20 18 20 47q0 41 -22 56q-8 6 -16.5 9.5t-19.5 5t-15.5 2t-18.5 0t-16 -0.5h-252v-74zM463 680h244q68 0 92 16q22 15 22 58q0 28 -22 43 q-23 14 -80 14h-174q-38 0 -56 -14q-26 -19 -26 -56v-61z" />
<glyph unicode="&#x433;" horiz-adv-x="1087" d="M61 0v879q0 98 31 141q46 65 137 65h899v-274h-589q-14 0 -30.5 -7.5t-25.5 -17.5q-20 -20 -20 -71v-715h-402z" />
<glyph unicode="&#x434;" horiz-adv-x="1318" d="M-20 0v291h108l326 686q20 41 48.5 67t65.5 37t64.5 14t66.5 3t67 -3t64.5 -14t65.5 -37t49 -67l326 -686h108v-291h-1359zM469 291h381l-172 446q-12 23 -19 23t-18 -23z" />
<glyph unicode="&#x435;" horiz-adv-x="1239" d="M37 530v63.5v64.5t1 56.5t3.5 58t6.5 49.5t10.5 51t15.5 41.5t22 42.5t29 34q67 68 191 87.5t321 19.5q192 0 290.5 -13t157.5 -61q117 -94 117 -365q0 -68 -12 -116.5t-53 -81.5q-37 -31 -107 -31h-592q-4 -51 19 -88q15 -24 45 -36t53 -13.5t68 -1.5h14h526v-291h-686 q-46 0 -69 0.5t-62.5 3t-62 7.5t-54 15t-52.5 25t-44 37.5t-41 52.5q-33 55 -44 142t-11 247zM438 684h297q38 0 52 18t14 39q0 59 -74 74q-44 8 -106 8q-107 0 -140 -18q-50 -28 -43 -121z" />
<glyph unicode="&#x436;" horiz-adv-x="1921" d="M-41 0l309 457q51 77 51 104q0 7 -2 14.5t-7.5 18t-10 18t-14.5 23.5t-17 27l-260 423h441l215 -387q24 -43 32 -58t18.5 -42.5t10.5 -46.5q0 -36 -51 -119l-271 -432h-444zM770 0v1085h381v-1085h-381zM1196 551q0 19 10.5 46.5t18.5 42.5t32 58l216 387h440l-260 -423 q-7 -11 -17 -27t-14.5 -23.5t-10 -18t-7.5 -18t-2 -14.5q0 -27 51 -104l309 -457h-444l-271 432q-51 83 -51 119z" />
<glyph unicode="&#x437;" horiz-adv-x="1189" d="M61 0v291h572q23 0 38 1.5t35.5 7t31 20.5t10.5 38q0 72 -119 72h-537v250h539q22 0 36.5 1.5t34.5 7t30.5 20t10.5 36.5q0 19 -8 32t-18 19.5t-27.5 10t-28 4t-28.5 0.5h-551v274h719q46 0 66 -1t63.5 -6t76.5 -19.5t60 -38.5q74 -67 74 -207q0 -119 -58 -184 q-64 -69 -159 -64v-8q96 5 159 -65q66 -73 66 -197q0 -158 -88 -234q-34 -28 -81 -42t-82.5 -16.5t-94.5 -2.5h-742z" />
<glyph unicode="&#x438;" horiz-adv-x="1374" d="M61 193v892h402l-21 -563q0 -30 19 -30q13 0 37 30l393 494q22 28 37 41.5t54.5 27t96.5 13.5q65 0 112 -18t69.5 -41.5t35.5 -58.5t15 -54.5t2 -44.5v-881h-402l21 563q0 33 -17 33q-4 0 -9 -3.5t-8 -7t-9.5 -11t-9.5 -11.5l-385 -481q-48 -59 -89.5 -76.5t-113.5 -17.5 q-230 0 -230 205z" />
<glyph unicode="&#x439;" horiz-adv-x="1374" d="M61 193v892h402l-21 -563q0 -30 19 -30q13 0 37 30l393 494q22 28 37 41.5t54.5 27t96.5 13.5q65 0 112 -18t69.5 -41.5t35.5 -58.5t15 -54.5t2 -44.5v-881h-402l21 563q0 33 -17 33q-4 0 -9 -3.5t-8 -7t-9.5 -11t-9.5 -11.5l-385 -481q-48 -59 -89.5 -76.5t-113.5 -17.5 q-230 0 -230 205zM223 1475h264q14 -50 50 -89q32 -35 64.5 -46t84.5 -11t85 11.5t65 45.5q34 37 49 89h264q-15 -74 -52 -144.5t-85 -113.5q-108 -99 -326 -99t-326 99q-48 43 -85 113.5t-52 144.5z" />
<glyph unicode="&#x43a;" horiz-adv-x="1263" d="M61 0v1085h402v-1085h-402zM504 557q0 49 65 143l267 385h442l-322 -413q-59 -76 -59 -113q0 -31 47 -94l381 -465h-451l-317 436q-53 74 -53 121z" />
<glyph unicode="&#x43b;" horiz-adv-x="1372" d="M-20 0l481 1001q5 11 15 23.5t34 31t70 30.5t106 12t106 -12t70 -30.5t34 -31t15 -23.5l482 -1001h-402l-284 700q-10 29 -21 29q-10 0 -20 -29l-285 -700h-401z" />
<glyph unicode="&#x43c;" horiz-adv-x="1679" d="M61 0v891q0 68 43 116.5t106.5 69.5t139.5 21q114 0 181.5 -39.5t99.5 -128.5l170 -471q7 -21 18.5 -34t20.5 -13t20.5 13t18.5 34l170 471q32 89 99 128.5t181 39.5q76 0 139.5 -21t106.5 -69.5t43 -116.5v-891h-401l20 586q0 24 -14 24t-23 -28l-172 -488 q-12 -34 -31.5 -56t-46 -32.5t-51.5 -14t-59 -3.5t-59.5 3.5t-52 14t-46 32.5t-31.5 56l-172 486q-9 28 -22 28q-15 0 -15 -24l21 -584h-402z" />
<glyph unicode="&#x43d;" horiz-adv-x="1282" d="M61 0v1085h402v-380h356v380h402v-1085h-402v414h-356v-414h-402z" />
<glyph unicode="&#x43e;" horiz-adv-x="1327" d="M37 543q0 316 143 444q56 49 144.5 75t160 31t179.5 5t179.5 -5t159.5 -31t144 -75q143 -128 143 -444q0 -317 -143 -445q-42 -37 -98.5 -60.5t-126 -33.5t-124 -13t-134.5 -3t-134.5 3t-124.5 13t-126.5 33.5t-98.5 60.5q-143 128 -143 445zM446 543q0 -135 39 -191 q8 -12 22.5 -25.5t58 -30.5t98.5 -17q127 0 176 73q41 56 41 191q0 137 -39 194q-52 70 -178 70q-127 0 -179 -70q-39 -56 -39 -194z" />
<glyph unicode="&#x43f;" horiz-adv-x="1290" d="M61 0v877q0 47 10.5 81.5t41.5 67.5q27 27 63 40.5t62.5 16t68.5 2.5h676q43 0 69 -2.5t62.5 -16t63.5 -40.5q31 -32 41 -66.5t10 -82.5v-877h-402v743q0 38 -20 54q-16 14 -51 14h-221q-36 0 -52 -14q-20 -16 -20 -54v-743h-402z" />
<glyph unicode="&#x440;" horiz-adv-x="1259" d="M61 -348v1227q0 115 74 168q53 38 154 38h504q205 0 313 -112q117 -121 117 -398q0 -298 -88 -425q-35 -49 -82 -81.5t-102 -46t-96.5 -18t-94.5 -4.5h-297v-348h-402zM463 291h176q106 0 149 84q25 47 25 170q0 109 -18 157q-12 31 -32.5 51.5t-44 28.5t-38.5 10.5 t-29 2.5h-141q-6 0 -17 -5t-16 -10q-14 -14 -14 -37v-452z" />
<glyph unicode="&#x441;" horiz-adv-x="1128" d="M37 528q0 72 3.5 122.5t14.5 113t37 115t66 94.5q107 112 327 112h584v-274h-397q-94 0 -140.5 -35t-66.5 -96q-19 -58 -19 -143q0 -130 33 -189q16 -26 40.5 -42.5t57 -23t52 -7.5t53.5 -1h6.5h5.5h398v-274h-627q-224 0 -332 129q-58 68 -77 162t-19 237z" />
<glyph unicode="&#x442;" horiz-adv-x="1212" d="M0 799v286h1212v-286h-405v-799h-401v799h-406z" />
<glyph unicode="&#x443;" horiz-adv-x="1355" d="M-20 1085h428l276 -665l291 665h401l-649 -1435h-401l170 350z" />
<glyph unicode="&#x444;" horiz-adv-x="1859" d="M37 532q0 265 76 388q102 165 358 165h260v349h397v-349h261q256 0 358 -165q76 -123 76 -388q0 -123 -18.5 -219t-71.5 -170q-41 -58 -104 -91.5t-120 -42.5t-129 -9h-252v-348h-397v348h-252q-72 0 -128.5 9t-119.5 42.5t-104 91.5q-53 74 -71.5 170t-18.5 219z M438 537q0 -117 31 -170q12 -21 27 -36.5t37 -24.5t36 -14t44 -7t38 -2h41h39v520h-43q-36 0 -55.5 -1.5t-55.5 -7.5t-63 -24t-45 -47q-31 -50 -31 -186zM1128 283h39q98 0 139 14q57 19 85 70q30 51 30 170q0 138 -30 186q-18 29 -45 47t-63.5 24t-56 7.5t-55.5 1.5h-43 v-520z" />
<glyph unicode="&#x445;" horiz-adv-x="1294" d="M-20 0l432 557l-398 528h457l176 -278l176 278h457l-397 -528l432 -557h-467l-201 307l-201 -307h-466z" />
<glyph unicode="&#x446;" horiz-adv-x="1372" d="M61 168v917h402v-710q0 -48 18 -66t68 -18h272v794h402v-794h170v-291h-1160q-75 0 -120 41q-52 47 -52 127z" />
<glyph unicode="&#x447;" horiz-adv-x="1282" d="M53 715v370h402v-225q0 -92 16 -119q30 -45 131 -45h217v389h402v-1085h-402v389h-493q-136 0 -215 111q-58 80 -58 215z" />
<glyph unicode="&#x448;" horiz-adv-x="1769" d="M61 193v892h398v-720q0 -38 10 -52q13 -18 45 -18h172v790h397v-790h172q31 0 45 18q11 15 11 52v720h397v-892v-16.5v-16.5t-0.5 -14.5t-1 -15t-2 -13.5t-4 -14.5t-5.5 -13t-7.5 -14t-10 -12.5t-12.5 -14q-23 -23 -53.5 -34.5t-49 -13t-51.5 -1.5h-10h-1233 q-40 0 -61 1.5t-51 13t-52 34.5q-28 29 -35.5 61.5t-7.5 82.5z" />
<glyph unicode="&#x449;" horiz-adv-x="1880" d="M61 193v892h398v-718q0 -41 8 -54q6 -7 21 -12.5t26 -5.5h170v790h397v-790h228v790h397v-790h174v-295h-1612q-37 0 -60.5 2t-54.5 14t-51 35q-41 45 -41 142z" />
<glyph unicode="&#x44a;" horiz-adv-x="1421" d="M0 809v276h438q66 0 115 -41q65 -53 65 -153v-168h490q137 0 209 -92q67 -84 67 -297q0 -53 -3.5 -90.5t-23.5 -91t-57 -89.5q-40 -39 -84.5 -51t-109.5 -12h-674q-107 0 -160 55q-55 55 -55 160v514q0 36 -16 57q-18 23 -58 23h-143zM618 381q0 -50 23 -70 q20 -20 64 -20h163q61 0 80 14q27 18 27 72q0 47 -23 63q-24 17 -84 17h-250v-76z" />
<glyph unicode="&#x44b;" horiz-adv-x="1830" d="M61 215v870h402v-362h489q137 0 209 -92q68 -85 68 -297q0 -53 -3.5 -90.5t-23.5 -91t-57 -89.5q-40 -39 -85 -51t-110 -12h-674q-106 0 -159 55q-56 56 -56 160zM463 381q0 -51 22 -70q20 -20 64 -20h164q61 0 80 14q26 17 26 72q0 47 -20 63q-34 17 -86 17h-250v-76z M1368 0v1085h401v-1085h-401z" />
<glyph unicode="&#x44c;" horiz-adv-x="1265" d="M61 215v870h402v-362h489q137 0 209 -92q68 -85 68 -297q0 -53 -3.5 -90.5t-23.5 -91t-57 -89.5q-40 -39 -85 -51t-110 -12h-674q-106 0 -159 55q-56 56 -56 160zM463 381q0 -51 22 -70q20 -20 64 -20h164q61 0 80 14q26 17 26 72q0 47 -20 63q-34 17 -86 17h-250v-76z " />
<glyph unicode="&#x44d;" horiz-adv-x="1136" d="M37 0v291h377q63 0 101 2.5t84 16t67 40.5q24 30 24 84h-624v254h624q-8 56 -47 86q-8 7 -18 12.5t-18.5 9.5t-21.5 7t-21.5 5t-24 3.5t-23 2t-25 1t-23 0.5h-24h-22.5h-371v270h651q192 0 293 -116q105 -124 105 -408q0 -305 -96 -428q-35 -46 -81 -75t-100.5 -40.5 t-91.5 -14.5t-90 -3h-604z" />
<glyph unicode="&#x44e;" horiz-adv-x="1902" d="M61 0v1085h390v-399h155q5 201 121 305q55 48 146 73t163 29.5t183 4.5q81 0 136.5 -2.5t128 -12t129.5 -33t97 -59.5q131 -120 131 -442q0 -327 -131 -451q-39 -37 -96.5 -60.5t-130 -33.5t-128.5 -13t-136 -3q-82 0 -137.5 3t-127 13t-128.5 33.5t-99 60.5 q-126 110 -121 334h-155v-432h-390zM999 501.5q0 -5.5 0.5 -20t1.5 -22t2.5 -21t4 -22.5t6 -20.5t9 -21t11.5 -18.5q52 -77 185 -77q132 0 184 77q37 53 37 183q0 141 -35 194q-51 74 -186 74q-136 0 -187 -74q-7 -10 -12 -22t-8.5 -21.5t-6 -25.5t-4 -24t-2 -27.5 t-0.5 -24.5v-26v-23v-17.5v-20z" />
<glyph unicode="&#x44f;" horiz-adv-x="1271" d="M20 0l293 371q11 11 11 22q0 13 -27 13h-27q-93 0 -155 79q-44 56 -58 123.5t-14 149.5q0 179 92 262q71 65 174 65h686q93 0 148 -47q40 -35 53.5 -81.5t13.5 -108.5v-848h-401v719q0 57 -21 76q-18 16 -73 16h-180q-43 0 -66 -18q-25 -20 -25 -64q0 -42 19 -59t63 -17 h99q61 0 96 -29.5t35 -82.5q0 -77 -56 -162l-249 -379h-431z" />
<glyph unicode="&#x451;" horiz-adv-x="1239" d="M37 530v63.5v64.5t1 56.5t3.5 58t6.5 49.5t10.5 51t15.5 41.5t22 42.5t29 34q67 68 191 87.5t321 19.5q192 0 290.5 -13t157.5 -61q117 -94 117 -365q0 -68 -12 -116.5t-53 -81.5q-37 -31 -107 -31h-592q-4 -51 19 -88q15 -24 45 -36t53 -13.5t68 -1.5h14h526v-291h-686 q-46 0 -69 0.5t-62.5 3t-62 7.5t-54 15t-52.5 25t-44 37.5t-41 52.5q-33 55 -44 142t-11 247zM180 1225v241h355v-241h-355zM438 684h297q38 0 52 18t14 39q0 59 -74 74q-44 8 -106 8q-107 0 -140 -18q-50 -28 -43 -121zM715 1225v241h354v-241h-354z" />
<glyph unicode="&#x452;" horiz-adv-x="1349" d="M-20 1182v180h151v72h401v-72h322v-180h-322v-97h304q188 0 292 -71q34 -23 60 -50.5t42.5 -52.5t28.5 -58.5t17.5 -56t8 -59t3 -53t0.5 -51.5v-322q0 -103 -18 -205q-18 -115 -68 -237q-47 -121 -112 -217h-418q87 123 141 260q45 110 59 197q15 88 15 204v246 q0 112 -58 176q-61 68 -170 68h-127v-803h-401v1182h-151z" />
<glyph unicode="&#x453;" horiz-adv-x="1067" d="M0 0v879q0 98 31 141q46 65 137 65h899v-274h-590q-34 0 -55 -25q-21 -21 -21 -71v-715h-401zM236 1389l393 325l178 -223l-393 -324z" />
<glyph unicode="&#x454;" horiz-adv-x="1185" d="M61 565q0 269 105 396q103 124 313 124h631v-274h-463q-96 0 -145 -49q-31 -31 -31 -74h625v-266h-625q0 -62 37 -96q39 -35 147 -35h469v-291h-585q-39 0 -65 1t-65.5 5t-69.5 13.5t-64 24t-63.5 39.5t-53.5 58q-97 130 -97 424z" />
<glyph unicode="&#x455;" horiz-adv-x="1130" d="M37 788q0 120 51 195q40 60 99 81t153 21h725v-278h-590q-39 0 -47 -2q-18 -4 -18 -19q0 -17 22 -24q25 -8 42.5 -15.5t39.5 -15.5l274 -92q103 -35 159 -65t91 -82q56 -81 56 -209q0 -160 -90 -232q-65 -51 -179 -51h-776v291h592q13 0 25 8q10 7 10 20q0 15 -19 25 q-8 5 -122 43l-234 76q-172 58 -223 143q-41 67 -41 182z" />
<glyph unicode="&#x456;" horiz-adv-x="524" d="M61 0v1085h402v-1085h-402zM61 1194v240h402v-240h-402z" />
<glyph unicode="&#x457;" horiz-adv-x="745" d="M-41 1208v262h340v-262h-340zM172 0v1085h401v-1085h-401zM446 1208v262h340v-262h-340z" />
<glyph unicode="&#x458;" horiz-adv-x="688" d="M-82 -90q91 -2 137.5 8.5t87.5 42.5q42 33 62 79.5t20 127.5v917h402v-1001q0 -252 -158 -354q-76 -49 -201.5 -66t-349.5 -12v258zM225 1194v240h402v-240h-402z" />
<glyph unicode="&#x459;" horiz-adv-x="2078" d="M-20 0l577 989q34 58 108.5 83.5t213.5 25.5q70 0 115 -2t91.5 -9t74 -21t50 -37t32 -57t9.5 -81v-201h498q121 0 186 -63q36 -34 55.5 -90t23 -97t3.5 -98q0 -56 -3.5 -95.5t-23.5 -95t-57 -90.5q-39 -38 -84.5 -49.5t-109.5 -11.5h-674q-107 0 -160 55q-55 55 -55 160 v530q0 26 -5 41.5t-9 19t-7 3.5q-13 0 -26 -25l-375 -784h-448zM1251 381q0 -50 23 -70q20 -20 63 -20h164q60 0 80 14q27 17 27 51q0 37 -21 52q-24 16 -86 16h-250v-43z" />
<glyph unicode="&#x45a;" horiz-adv-x="2088" d="M102 0v1085h402v-380h356v380h402v-395h497q121 0 187 -61q82 -78 82 -291q0 -55 -3.5 -93.5t-23.5 -92t-57 -89.5q-40 -39 -85 -51t-110 -12h-674q-107 0 -160 55q-55 55 -55 160v199h-356v-414h-402zM1262 381q0 -51 22 -70q20 -20 64 -20h163q60 0 80 14q27 17 27 51 q0 37 -21 52q-24 16 -86 16h-249v-43z" />
<glyph unicode="&#x45b;" horiz-adv-x="1390" d="M-20 1182v180h151v72h401v-72h322v-180h-322v-97h240q145 0 205 -11q93 -17 162 -68q72 -54 110.5 -134t38.5 -163v-709h-401v553q0 122 -62 186q-59 64 -166 64h-127v-803h-401v1182h-151z" />
<glyph unicode="&#x45c;" horiz-adv-x="1263" d="M61 0v1085h402v-1085h-402zM379 1389l393 325l178 -223l-393 -324zM504 557q0 49 65 143l267 385h442l-322 -413q-59 -76 -59 -113q0 -31 47 -94l381 -465h-451l-317 436q-53 74 -53 121z" />
<glyph unicode="&#x45e;" horiz-adv-x="1396" d="M0 1085h428l277 -665l290 665h402l-649 -1435h-402l170 350zM233 1503h265q14 -50 49 -88q32 -35 64.5 -46t84.5 -11t85 11.5t65 45.5q35 38 49 88h264q-15 -74 -52 -144.5t-85 -113.5q-64 -59 -146 -78.5t-180 -19.5t-179.5 19.5t-145.5 78.5q-48 43 -85.5 113.5 t-52.5 144.5z" />
<glyph unicode="&#x45f;" horiz-adv-x="1363" d="M102 143v942h402v-735q0 -45 12 -59q12 -12 49 -12h234q37 0 49 12q12 14 12 59v735h402v-942q0 -65 -39 -104q-18 -18 -40.5 -27t-38 -10.5t-44.5 -1.5h-217v-360h-402v360h-217q-29 0 -44.5 1.5t-38 10.5t-40.5 27q-39 39 -39 104z" />
<glyph unicode="&#x490;" horiz-adv-x="1404" d="M143 0v1184q0 118 70 188q38 38 80.5 50t101.5 12h494q62 0 78 20q16 21 16 80v156h463v-422q0 -72 -29 -115q-50 -76 -164 -76h-589q-36 0 -48 -16q-10 -13 -10 -72v-989h-463z" />
<glyph unicode="&#x491;" horiz-adv-x="1118" d="M102 0v913q0 88 41 129q43 43 119 43h434q38 0 60 19q14 12 14 49v199h389v-365q0 -90 -41 -131t-143 -41h-402q-53 0 -61 -8t-8 -59v-748h-402z" />
<glyph unicode="&#x2000;" horiz-adv-x="1031" />
<glyph unicode="&#x2001;" horiz-adv-x="2062" />
<glyph unicode="&#x2002;" horiz-adv-x="1031" />
<glyph unicode="&#x2003;" horiz-adv-x="2062" />
<glyph unicode="&#x2004;" horiz-adv-x="687" />
<glyph unicode="&#x2005;" horiz-adv-x="515" />
<glyph unicode="&#x2006;" horiz-adv-x="343" />
<glyph unicode="&#x2007;" horiz-adv-x="343" />
<glyph unicode="&#x2008;" horiz-adv-x="257" />
<glyph unicode="&#x2009;" horiz-adv-x="412" />
<glyph unicode="&#x200a;" horiz-adv-x="114" />
<glyph unicode="&#x2010;" d="M61 387v324h875v-324h-875z" />
<glyph unicode="&#x2011;" d="M61 387v324h875v-324h-875z" />
<glyph unicode="&#x2012;" d="M61 387v324h875v-324h-875z" />
<glyph unicode="&#x2013;" horiz-adv-x="1130" d="M61 387v324h1008v-324h-1008z" />
<glyph unicode="&#x2014;" horiz-adv-x="2103" d="M102 387v324h1899v-324h-1899z" />
<glyph unicode="&#x2018;" horiz-adv-x="714" d="M102 1442l267 157l346 -503l-299 -178z" />
<glyph unicode="&#x2019;" horiz-adv-x="714" d="M0 1075l313 524l299 -178l-346 -503z" />
<glyph unicode="&#x201a;" horiz-adv-x="714" d="M0 -145l313 524l299 -178l-346 -504z" />
<glyph unicode="&#x201c;" horiz-adv-x="1265" d="M102 1438l267 157l346 -503l-299 -179zM653 1438l267 157l346 -503l-299 -179z" />
<glyph unicode="&#x201d;" horiz-adv-x="1265" d="M0 1071l313 524l299 -178l-346 -504zM551 1071l313 524l299 -178l-346 -504z" />
<glyph unicode="&#x201e;" horiz-adv-x="1265" d="M0 -145l313 524l299 -178l-346 -504zM551 -145l313 524l299 -178l-346 -504z" />
<glyph unicode="&#x2020;" horiz-adv-x="1038" d="M61 786v267h320v381h278v-381h318v-267h-318v-1134h-278v1134h-320z" />
<glyph unicode="&#x2021;" horiz-adv-x="1038" d="M61 41v266h320v484h-320v266h320v377h278v-377h318v-266h-318v-484h318v-266h-318v-389h-278v389h-320z" />
<glyph unicode="&#x2022;" horiz-adv-x="901" d="M102 717q0 142 103 245t246 103t245.5 -102.5t102.5 -245.5t-102.5 -245.5t-245.5 -102.5t-246 103t-103 245z" />
<glyph unicode="&#x2026;" horiz-adv-x="1830" d="M102 0v369h406v-369h-406zM713 0v369h405v-369h-405zM1323 0v369h406v-369h-406z" />
<glyph unicode="&#x202f;" horiz-adv-x="412" />
<glyph unicode="&#x2030;" horiz-adv-x="2422" d="M102 1098q0 87 16.5 153t67.5 117q48 48 105 63t141 15q83 0 139.5 -15t104.5 -63q51 -51 67.5 -117t16.5 -153q0 -86 -16.5 -152t-67.5 -117q-48 -48 -104 -62.5t-140 -14.5q-85 0 -141.5 14.5t-104.5 62.5q-51 51 -67.5 117t-16.5 152zM283 1098q0 -96 26 -135 q34 -45 123 -45q87 0 121 45q27 41 27 135q0 103 -27 137q-34 45 -121 45q-89 0 -123 -45q-26 -33 -26 -137zM317 0l832 1434h213l-832 -1434h-213zM915 336q0 85 16.5 151t67.5 119q47 49 102.5 62.5t141.5 13.5q88 0 143 -13.5t103 -62.5q51 -53 67.5 -119t16.5 -151 q0 -87 -16.5 -153t-67.5 -117q-48 -48 -105 -63t-141 -15q-83 0 -139.5 15t-104.5 63q-51 51 -67.5 117t-16.5 153zM1096 336q0 -98 26 -137q34 -45 121 -45q89 0 123 45q27 41 27 137q0 99 -27 135q-15 22 -40.5 32.5t-39.5 11.5t-43 1q-28 0 -42 -1t-39 -11.5t-40 -32.5 q-26 -35 -26 -135zM1663 336q0 85 16.5 151t67.5 119q47 49 102.5 62.5t141.5 13.5q88 0 142.5 -13.5t102.5 -62.5q51 -53 67.5 -119t16.5 -151q0 -87 -16.5 -153t-67.5 -117q-48 -48 -104.5 -63t-140.5 -15q-83 0 -139.5 15t-104.5 63q-51 51 -67.5 117t-16.5 153z M1843 336q0 -96 27 -137q34 -45 121 -45q89 0 123 45q26 39 26 137q0 100 -26 135q-15 22 -40.5 32.5t-39.5 11.5t-43 1q-28 0 -42 -1t-39 -11.5t-40 -32.5q-27 -36 -27 -135z" />
<glyph unicode="&#x2039;" horiz-adv-x="808" d="M102 575q0 91 54 160l297 387l254 -196l-199 -285q-23 -35 -23 -66t23 -65l199 -285l-254 -196l-297 387q-54 69 -54 159z" />
<glyph unicode="&#x203a;" horiz-adv-x="808" d="M102 225l199 285q23 34 23 65t-23 66l-199 285l254 196l297 -387q54 -69 54 -160q0 -90 -54 -159l-297 -387z" />
<glyph unicode="&#x205f;" horiz-adv-x="515" />
<glyph unicode="&#x2122;" horiz-adv-x="2187" d="M0 1237v199h860v-199h-328v-631h-202v631h-330zM922 606v715q0 59 36.5 92t141.5 33q127 0 168 -90l213 -477q13 -27 20 -27t21 27l213 477q40 90 170 90q36 0 63.5 -4.5t56.5 -16.5t44.5 -38t15.5 -66v-715h-203v531q0 22 -16 22q-5 0 -10.5 -5.5t-9.5 -11.5l-3 -7 l-198 -441q-22 -49 -35 -63q-32 -33 -109 -33q-21 0 -29 0.5t-24.5 2.5t-24.5 8t-20 16.5t-22 27.5t-21 41l-197 441l-3 7q-4 6 -9 11.5t-10 5.5q-17 0 -17 -22v-531h-202z" />
<glyph unicode="&#x25fc;" horiz-adv-x="1085" d="M0 0v1085h1085v-1085h-1085z" />
</font>
</defs>
</svg>
