<svg class="svg-ico-c-post" xmlns="http://www.w3.org/2000/svg" width="60" height="60" viewBox="319 24.9 60 60"><path d="M360.1 46.6h-22.2c-0.5 0-0.9 0.4-0.9 0.9v14.8c0 0.5 0.4 0.9 0.9 0.9h22.2c0.5 0 0.9-0.4 0.9-0.9V47.6C361 47 360.6 46.6 360.1 46.6zM357.5 48.5l-8.5 7.1 -8.5-7.1H357.5zM359.2 61.4h-20.3V49.5l9.6 8c0.2 0.1 0.4 0.2 0.6 0.2s0.4-0.1 0.6-0.2l9.6-8V61.4zM349 24.9c-16.6 0-30 13.5-30 30s13.5 30 30 30 30-13.5 30-30S365.6 24.9 349 24.9zM349 84c-16 0-29-13-29-29s13-29 29-29 29 13 29 29S365 84 349 84z"></path></svg>