<svg class="svg-ico-c-work" xmlns="http://www.w3.org/2000/svg" width="60" height="60" viewBox="319 24.9 60 60"><path d="M349 42.9c-0.5 0-0.9 0.4-0.9 0.9 0 0.5 0.4 0.9 0.9 0.9 5.6 0 10.2 4.6 10.2 10.2 0 5.6-4.6 10.2-10.2 10.2 -5.6 0-10.2-4.6-10.2-10.2 0-2.3 0.8-4.5 2.2-6.3l0.3-0.4 0.9 1.2c0.1 0.1 0.2 0.1 0.3 0.1 0 0 0 0 0 0l0 0c0.1 0 0.2-0.1 0.3-0.2l2.3-4.9c0.1-0.1 0-0.2 0-0.3 -0.1-0.1-0.2-0.2-0.3-0.2 0 0 0 0 0 0l0 0 -5.4 0.4c-0.1 0-0.2 0.1-0.3 0.2 -0.1 0.1 0 0.2 0 0.3l1.1 1.7 -0.2 0.2c-2 2.2-3 5-3 8 0 6.6 5.4 12 12 12 6.6 0 12-5.4 12-12C361 48.3 355.6 42.9 349 42.9zM348.6 55.7l3.5 1.9c0.1 0.1 0.3 0.1 0.4 0.1 0.3 0 0.6-0.2 0.8-0.5 0.2-0.4 0.1-1-0.4-1.2l-3-1.6v-6.2c0-0.5-0.4-0.9-0.9-0.9 -0.5 0-0.9 0.4-0.9 0.9v6.8C348.1 55.3 348.3 55.6 348.6 55.7zM349 24.9c-16.6 0-30 13.5-30 30s13.5 30 30 30 30-13.5 30-30S365.6 24.9 349 24.9zM349 84c-16 0-29-13-29-29s13-29 29-29 29 13 29 29S365 84 349 84z"></path></svg>