<svg xmlns="http://www.w3.org/2000/svg" width="50" height="50" viewBox="0 0 431 386.2">
	<path d="M163.4 240.8c18.4 0 33.4-15 33.5-33.5v-7.9c-0.7-18.1-15.3-32.3-33.5-32.3 -0.4 0-0.8 0-1.2 0 -17.5 0.6-31.7 14.8-32.3 32.3v7.9c0 18.4 15 33.4 33.5 33.5H163.4zM144.3 207.4v-8l0-0.2c0.6-10.1 8.9-18.1 19.1-18.1 0.3 0 0.7 0 1.1 0 9.7 0.5 17.5 8.3 18 18l0 0.1v8.1c0 10.5-8.6 19-19.1 19C152.9 226.4 144.3 217.9 144.3 207.4zM267.8 253.5h-0.2c-18.5 0-33.5 15.1-33.5 33.5v8.1c0 18.4 15 33.4 33.5 33.5 0 0 0 0 0 0 18.4 0 33.5-15 33.5-33.5l0-8C301.2 268.7 286.2 253.6 267.8 253.5zM286.7 295c0 10.5-8.6 19-19.1 19 -10.5 0-19-8.6-19-19.1v-7.9l0-0.2c0.8-9.9 9.1-17.6 19-17.6 0.5 0 1 0 1.5 0.1 9.5 0.7 16.8 8.1 17.6 17.6l0 0.2V295zM428.7 197.7l-87.3-82.1V30.4c0-4-3.2-7.2-7.2-7.2h-50.6c-4 0-7.2 3.2-7.2 7.2v24.1L220.4 1.9C219 0.7 217.3 0 215.5 0c-1.8 0-3.6 0.7-4.9 1.9L2.3 197.7c-2.9 2.7-3 7.3-0.3 10.2 1.4 1.4 3.3 2.3 5.2 2.3h59.2v161.7H22.9c-4 0-7.2 3.2-7.2 7.2 0 4 3.2 7.2 7.2 7.2h385.3c4 0 7.2-3.2 7.2-7.2 0-4-3.2-7.2-7.2-7.2h-43.6V210.1h59.2c1.9 0 3.7-0.8 5.1-2.1 1.4-1.4 2.1-3.2 2.1-5.1C431 200.9 430.2 199 428.7 197.7zM357.4 195.7v0c-4 0-7.2 3.2-7.2 7.2v168.9H80.8V202.9c0-4-3.2-7.2-7.2-7.2H25.4L215.5 17l63.2 59.4c1.3 1.3 3.1 1.9 4.9 1.9 2 0 3.9-0.8 5.3-2.3 1.3-1.3 1.9-3.1 1.9-4.9V37.6h36.2v81.1c0 2 0.8 3.9 2.3 5.2l76.3 71.8H357.4zM273.2 180.1c-0.2-1.9-1.2-3.6-2.7-4.8l0 0c-1.3-1-2.8-1.5-4.4-1.5 -2.3 0-4.4 1-5.7 2.8l-101.1 132.2c-1.2 1.5-1.6 3.4-1.4 5.3 0.3 1.9 1.3 3.6 2.8 4.7 1.3 0.9 2.7 1.4 4.3 1.4 2.3 0 4.4-1 5.8-2.9L271.8 185.4C273 183.9 273.5 182 273.2 180.1z"></path>
</svg>