<svg xmlns="http://www.w3.org/2000/svg" width="50" height="50" viewBox="0 0 381.6 317.3">
	<path d="M309.5 68.9h-75.9V0H0v278.3h26.4l0.1 0.9c3.1 21.7 22 38.1 43.9 38.1 21.9 0 40.8-16.4 43.9-38.1l0.1-0.9h153l0.1 0.9c3.1 21.7 22 38.1 43.9 38.1 21.9 0 40.7-16.4 44-38.1l0.1-0.9h26.2V141.1L309.5 68.9zM11.4 81.4h113.2V56.6l51.9 51.9 -47.2 47.2h-0.1v-20H11.4V81.4zM11.4 147.1h106.4v36.3l74.9-74.9 -79.6-79.6v41H11.4V11.4h210.7v195.2H11.4V147.1zM70.3 305.8c-18.2 0-33-14.8-33-33 0-18.2 14.8-33 33-33s33 14.8 33 33S88.5 305.8 70.3 305.8zM311.4 305.8c-18.2 0-33-14.8-33-33 0-18.2 14.8-33 33-33s33 14.8 33 33S329.6 305.8 311.4 305.8zM370.2 266.8h-14.8l-0.1-0.8c-3.3-21.5-22.2-37.7-43.9-37.7 -21.8 0-40.6 16.2-44.1 37.8l-0.1 0.8h-153l-0.1-0.8c-3.3-21.5-22.2-37.7-43.9-37.7s-40.6 16.2-43.9 37.7l-0.1 0.8H11.4v-48.8h222.2V80.3h71.1l65.5 65.5V266.8zM311.4 254.2c-10.2 0-18.6 8.4-18.6 18.6s8.3 18.6 18.6 18.6c10.2 0 18.6-8.4 18.6-18.6S321.7 254.2 311.4 254.2zM311.4 280c-4 0-7.2-3.2-7.2-7.2s3.2-7.2 7.2-7.2c3.9 0 7.2 3.2 7.2 7.2S315.4 280 311.4 280zM260.8 107.3v82.3h82.3v-32.3l-50-50H260.8zM331.8 178.3h-59.5v-59.5h16.2l43.3 43.3V178.3zM70.3 254.2c-10.2 0-18.6 8.4-18.6 18.6s8.3 18.6 18.6 18.6 18.6-8.4 18.6-18.6S80.6 254.2 70.3 254.2zM70.3 280c-4 0-7.2-3.2-7.2-7.2s3.2-7.2 7.2-7.2 7.2 3.2 7.2 7.2S74.3 280 70.3 280z"></path>
</svg>