<svg xmlns="http://www.w3.org/2000/svg" width="50" height="50" viewBox="0 0 448.1 448">
	<path d="M399.9 314.8c-3.3-2.2-8-1.4-10.3 2l-41.8 60 -29.5-24.2c-3.2-2.6-7.9-2.2-10.5 1s-2.2 7.9 1 10.5l35.8 29.3c1.3 1.1 3 1.7 4.7 1.7 0.4 0 0.7 0 1-0.1 2.1-0.3 3.9-1.4 5.1-3.1l46.4-66.7C404.2 321.8 403.3 317.1 399.9 314.8zM107.8 328.7l-5.3 5.3c-2.9 2.9-2.9 7.6 0 10.5 1.5 1.5 3.4 2.2 5.3 2.2 1.9 0 3.8-0.7 5.3-2.2l5.3-5.3c2.9-2.9 2.9-7.6 0-10.5C115.5 325.8 110.7 325.8 107.8 328.7zM67.2 215.6h-7.5c-4.1 0-7.5 3.4-7.5 7.5 0 4.1 3.4 7.5 7.5 7.5h7.5c4.1 0 7.5-3.4 7.5-7.5C74.7 219 71.3 215.6 67.2 215.6zM224 73.8c4.1 0 7.5-3.4 7.5-7.5v-7.5c0-4.1-3.4-7.5-7.5-7.5 -4.1 0-7.5 3.4-7.5 7.5v7.5C216.5 70.4 219.9 73.8 224 73.8zM224 372.4c-4.1 0-7.5 3.4-7.5 7.5v7.5c0 4.1 3.4 7.5 7.5 7.5 4.1 0 7.5-3.4 7.5-7.5v-7.5C231.5 375.8 228.1 372.4 224 372.4zM434.3 301.2c9-24.7 13.7-50.7 13.7-77.2C448 100.5 347.5 0 224 0S0 100.5 0 224s100.5 224 224 224c26.5 0 52.5-4.7 77.3-13.8 14.6 8.7 31.5 13.8 49.7 13.8 53.5 0 97.1-43.5 97.1-97.1C448.1 332.8 443 315.8 434.3 301.2zM350.9 433.1c-16.7 0-32.1-5-45-13.5 -2.8-1.8-5.3-3.7-7.8-5.8 -0.4-0.4-0.9-0.8-1.3-1.2 -1.9-1.6-3.7-3.4-5.3-5.2 -0.7-0.7-1.5-1.6-2.2-2.4 -1.3-1.5-2.6-3.1-3.8-4.7 -0.7-0.9-1.3-1.7-2-2.6 -1.5-2.2-2.9-4.5-4.3-6.8 -0.4-0.6-0.7-1.2-1-1.9 -1.3-2.4-2.4-4.8-3.4-7.2 -0.4-1-0.7-1.9-1-2.9 -0.7-1.9-1.3-4-1.9-6 -0.3-1-0.6-2.1-0.8-3.1 -0.5-2.1-0.9-4.3-1.2-6.4 -0.1-1-0.3-1.9-0.4-2.8 -0.5-3.2-0.7-6.3-0.7-9.6 0-45.3 36.8-82.1 82.1-82.1 3.2 0 6.3 0.2 9.5 0.6 1 0.1 1.9 0.3 2.8 0.4 2.2 0.3 4.3 0.7 6.4 1.2 1 0.2 2.2 0.5 3.2 0.8 2 0.5 4 1.2 6 1.9 1 0.4 1.9 0.7 2.9 1 2.5 1 4.9 2.1 7.2 3.4 0.6 0.3 1.3 0.7 1.9 1 2.3 1.3 4.6 2.7 6.8 4.3 0.9 0.6 1.8 1.3 2.6 2 1.6 1.2 3.2 2.5 4.7 3.8 0.8 0.7 1.6 1.4 2.4 2.2 1.8 1.7 3.5 3.4 5.1 5.3 0.4 0.4 0.8 0.8 1.2 1.3 2.1 2.5 4 5.1 5.8 7.8 8.6 12.9 13.6 28.4 13.6 45C433.1 396.3 396.3 433.1 350.9 433.1zM423.5 286.6c-0.6-0.7-1.3-1.3-1.9-1.9 -1.2-1.3-2.5-2.6-3.7-3.8 -1.2-1.1-2.4-2.2-3.6-3.3 -1.2-1-2.4-2-3.7-3s-2.8-2.1-4.2-3.1c-1.2-0.8-2.5-1.6-3.7-2.5 -1.5-1-3-1.9-4.5-2.8 -1.3-0.7-2.7-1.4-4-2.1 -1.5-0.7-3.1-1.6-4.6-2.2 -1.6-0.7-3.1-1.3-4.7-1.8 -1.5-0.5-2.9-1.1-4.4-1.6 -1.8-0.6-3.7-1-5.5-1.5 -1.3-0.4-2.6-0.7-4-1 -2.2-0.4-4.5-0.7-6.7-1.1 -1-0.1-2.1-0.4-3.1-0.4 -3.4-0.3-6.8-0.5-10.2-0.5 -53.5 0-97.1 43.5-97.1 97.1 0 3.4 0.2 6.9 0.5 10.2 0.1 1 0.4 2.1 0.5 3.2 0.3 2.2 0.6 4.5 1 6.7 0.3 1.3 0.7 2.7 1 4 0.4 1.9 0.9 3.7 1.5 5.5 0.4 1.5 1 3 1.6 4.5 0.6 1.6 1.1 3.1 1.8 4.6 0.7 1.6 1.5 3.1 2.2 4.6 0.7 1.3 1.3 2.7 2.1 4 0.9 1.6 1.8 3.1 2.8 4.6 0.8 1.3 1.6 2.5 2.4 3.7 1 1.4 2.1 2.8 3.1 4.2 1 1.2 1.9 2.4 2.9 3.6 1 1.3 2.2 2.5 3.3 3.7 1.2 1.3 2.5 2.5 3.7 3.7 1 0.3 1.5 1 2.2 1.6 -20.2 6.3-41.1 9.6-62.5 9.6 -115.3 0-209.1-93.8-209.1-209.1S108.7 14.9 224 14.9 433.1 108.7 433.1 224C433.1 245.4 429.9 266.3 423.5 286.6zM380.8 230.6h7.5c4.1 0 7.5-3.4 7.5-7.5 0-4.1-3.4-7.5-7.5-7.5h-7.5c-4.1 0-7.5 3.4-7.5 7.5C373.3 227.2 376.7 230.6 380.8 230.6zM335 101.7l-5.3 5.3c-2.9 2.9-2.9 7.6 0 10.5 1.4 1.4 3.2 2.2 5.2 2.2 1.9 0 3.8-0.7 5.3-2.2l5.3-5.3c2.9-2.9 2.9-7.6 0-10.5C342.6 98.8 337.9 98.8 335 101.7zM113.1 101.7c-2.9-2.9-7.6-2.9-10.5 0 -2.9 2.9-2.9 7.6 0 10.5l5.3 5.3c1.5 1.5 3.4 2.2 5.3 2.2 1.9 0 3.8-0.7 5.3-2.2 2.9-2.9 2.9-7.6 0-10.5L113.1 101.7zM231.5 194.3v-75.7c0-4.1-3.4-7.5-7.5-7.5 -4.1 0-7.5 3.4-7.5 7.5v75.7c-10.8 2.8-19.2 11.3-21.7 22.3h-53c-4.1 0-7.5 3.4-7.5 7.5 0 4.1 3.4 7.5 7.5 7.5h53.6c3.7 12.4 15 21.5 28.5 21.5 16.5 0 29.9-13.4 29.9-29.9C253.9 209.2 244.3 197.6 231.5 194.3zM224 238c-8.2 0-14.9-6.7-14.9-14.9 0-8.2 6.7-14.9 14.9-14.9 8.2 0 14.9 6.7 14.9 14.9C238.9 231.3 232.2 238 224 238z"></path>
</svg>