<svg class="svg-ico-c-local" xmlns="http://www.w3.org/2000/svg" width="60" height="60" viewBox="319 24.9 60 60"><path d="M348.9 43c-5.1 0-9.2 4.1-9.2 9.2 0 2.1 1.4 5.1 4.2 9 2.1 3 4.3 5.4 4.4 5.5 0.2 0.2 0.4 0.3 0.6 0.3 0.2 0 0.5-0.1 0.6-0.3 0.2-0.3 2.3-2.6 4.4-5.5 2.8-3.9 4.2-6.9 4.2-9C358.1 47.1 354 43 348.9 43zM348.9 64.8c-1.8-2.1-7.5-9.1-7.5-12.6 0-4.1 3.4-7.5 7.5-7.5 4.1 0 7.5 3.4 7.5 7.5C356.4 55.7 350.7 62.7 348.9 64.8zM348.9 50c-0.7 0-1.3 0.6-1.3 1.3s0.6 1.3 1.3 1.3 1.3-0.6 1.3-1.3S349.6 50 348.9 50zM349 24.9c-16.6 0-30 13.5-30 30 0 16.6 13.5 30 30 30s30-13.5 30-30C379 38.4 365.6 24.9 349 24.9zM349 84c-16 0-29-13-29-29 0-16 13-29 29-29s29 13 29 29C378 70.9 365 84 349 84z"></path></svg>